<svg xmlns="http://www.w3.org/2000/svg" xml:space="preserve" width="311" height="222.89" viewBox="0 0 311 222.887"><path fill="#fff" d="M131.604 121.88h27.305l-14.465-43.135z"/><path fill="#fff" d="M300.072 211.954H155.507v-37.057l16.176-4.964-5.224-15.824h-43.67l-5.615 15.794 17.538 4.994v37.056H10.94v-37.056l20.55-5.02L80.17 62.028 54.46 55.49V10.935h202.095v44.568l-25.952 6.525 48.083 107.85 21.385 5.02zm-13.606-51.482L245.89 69.459l21.602-5.431V-.002H43.524v63.994l21.318 5.42-41.124 91.104L.006 166.31v56.575h311.003v-56.657l-24.54-5.76"/><path fill="#ce1126" d="m247.697 200.374-14.024-10.641-13.988 10.132 5.426-16.052-13.207-10.605h16.417l5.352-15.316 5.351 15.316h17.064l-13.573 10.767zm-57.238-71.056h16.392l5.383-15.327 5.32 15.327h17.083l-13.588 10.774 5.2 16.392-14.015-10.632-14.025 10.14 5.451-16.07zm-20.91-45.074h16.42l5.357-15.322 5.339 15.322h17.072l-13.595 10.783 5.183 16.388-13.998-10.639-14.015 10.101 5.432-16.037zM154.522 66.41l5.432-16.021-13.147-10.6h16.38l5.371-15.345 5.326 15.345h17.09l-13.606 10.758 5.192 16.405-14.002-10.641zm-22.917 55.47 12.84-43.134 14.465 43.134zm99.002-59.855L256.56 55.5V10.93H54.465v44.555l25.71 6.538-48.682 107.85-20.549 5.02v37.055h123.773v-37.056l-17.54-4.994 5.617-15.794h43.67l5.224 15.824-16.177 4.964v37.057h144.565v-37.057l-21.385-5.02z"/><g fill="#fff"><path d="m177.365 50.548 13.606-10.758h-17.09l-5.325-15.345-5.372 15.345h-16.38l13.147 10.6-5.432 16.021 14.037-10.099 14.001 10.642zM191.325 100.775l13.998 10.64-5.182-16.389 13.594-10.783h-17.072l-5.338-15.322-5.357 15.322h-16.42l13.195 10.596-5.433 16.037zM212.235 145.853l14.015 10.632-5.2-16.392 13.588-10.774h-17.083l-5.32-15.327-5.383 15.327H190.46l13.202 10.605-5.45 16.069zM239.024 173.208l-5.351-15.316-5.352 15.316h-16.417l13.207 10.605-5.426 16.052 13.988-10.132 14.024 10.641-5.182-16.4 13.573-10.766z"/></g></svg>