<svg xmlns="http://www.w3.org/2000/svg" width="500" height="500" fill="none" viewBox="0 0 500 500"><path fill="#ffb612" fill-rule="evenodd" d="M248.689 102.258C127.44 102.269 25 170.223 25 250.66c0 83.731 96.171 146.869 223.689 146.869 74.425 0 144.985-26.157 188.757-69.966 24.094-24.109 37.343-51.43 37.317-76.903-.031-39.661-23.362-76.91-65.691-104.899-42.44-28.058-99.392-43.503-160.383-43.503" clip-rule="evenodd"/><path fill="#203731" fill-rule="evenodd" d="M92.26 349.009c-38.902-25.947-60.332-60.885-60.332-98.35 0-75.356 101.292-141.463 216.761-141.473 120.776-.006 219.078 63.459 219.152 141.473.021 23.636-12.513 49.204-35.296 72.009-42.498 42.534-111.226 67.933-183.856 67.933-60.679 0-116.237-14.776-156.429-41.592" clip-rule="evenodd"/><path fill="#fff" fill-rule="evenodd" d="M345.728 211.794c-17.413-25.937-55.542-43.924-100.439-43.924-61.622 0-111.59 33.896-111.59 75.704 0 41.802 35.27 78.509 111.59 78.467 45.829-.021 82.678-19.814 99.892-45.814l-130.177.226-.4-33.816 225.969-.079c.305 2.711.621 5.353.621 8.101 0 65.091-86.19 117.854-192.505 117.854-106.309 0-192.494-52.763-192.494-117.854S147.497 130.81 248.69 130.416c84.227-.322 155.824 34.48 181.934 81.325z" clip-rule="evenodd"/></svg>