<svg xmlns="http://www.w3.org/2000/svg" width="500" height="500" fill="none" viewBox="0 0 500 500"><path fill="#fff" d="M347.508 126.738c87.732 66.764 20.968 76.76-47.552 86.51 0 0-28.913-7.97-79.007-32.866-113.627-56.432-77.859-83.025 11.448-99.113C89.471 19.006-29.651 127.419 101.762 232.83l-36.063 25.78c29.626 18.155 90.995 56.252 82.074 114.579l-30.455 21.771 93.029 42.156 73.406-33.259c.533-32.308 58.269-49.085 83.115-114.8 136.752-31.373 101.926-151.667-19.352-162.311z"/><path fill="#021018" d="M285.002 219.408c-171.667-66.305-183.041-120.696-75.883-139.49C75.106 43.5-3.056 140.622 129.538 233.24l-35.58 25.428c37.777 25.24 77.818 62.624 64.231 121.451l-17.926 12.8 68.848 31.209c64.074-70.176 97.596-138.367 75.882-204.721zM241.73 326.172l-26.371-29.996-30.283 4.51 13.998-23.058-26.371-30.02 35.022 15.76 13.964-23.058 7.643 32.783 35.022 15.736-30.291 4.535 7.667 32.8z"/><path fill="#eb0028" d="M372.14 137.186c58.917 46.125 18.007 75.596-53.817 83.599 18.172 76.596-37.547 146.755-96.53 201.08l54.087-24.501c4.002-31.136 58.876-47.322 84.878-116.407 122.139-27.249 102.205-114.907 11.382-143.779z"/></svg>