<svg xmlns="http://www.w3.org/2000/svg" width="500" height="500" viewBox="0 0 500 500"><defs><linearGradient id="a" x1="49.997%" x2="49.997%" y1="-.001%" y2="100%"><stop offset="21.7%" stop-color="#ffd100"/><stop offset="29.6%" stop-color="#ffd724"/><stop offset="47.4%" stop-color="#ffe87f"/><stop offset="70.7%" stop-color="#fff"/></linearGradient><linearGradient id="b" x1="0%" x2="100%" y1="50%" y2="50%"><stop offset="0%" stop-color="#ffa300"/><stop offset="13.4%" stop-color="#ffa800"/><stop offset="28.9%" stop-color="#ffb600"/><stop offset="45.3%" stop-color="#ffcd00"/><stop offset="47.8%" stop-color="#ffd100"/></linearGradient></defs><g fill="none" fill-rule="evenodd"><path d="M0 0h500v500H0z"/><g fill-rule="nonzero"><path fill="#003594" d="M423.853 141.076c-62.97-62.99-161.07-74.214-236.64-27.073a199 199 0 0 0-53.184 51.946q-.076.09-.154.18h-39.46L20 334.496h96.542a153.9 153.9 0 0 0 60.938 61.815c49.257 27.108 109.45 24.842 156.53-5.891a14.803 14.803 0 0 0-7.924-27.186c-1.473.002-2.937.22-4.347.646a102.8 102.8 0 0 1-29.664 4.343 101.44 101.44 0 0 1-75.772-33.727h90.153l15.483-21.573 60.094.006s-1.83 4.65-2.834 6.926l-6.452 14.647H471.1l2.094-7.696c18.065-66.28-.764-137.157-49.341-185.731m39.27 182.989h-74.375a150.6 150.6 0 0 0 7.615-21.578h-79.862L301.1 324.065h-71.59l107.034-149.943-.013-.005a115.8 115.8 0 0 0-44.453-8.604q-2.917 0-5.796.148c-58.066 2.926-104.373 49.542-104.373 106.422 0 3.695.196 7.388.588 11.062h63.229l-18.828 26.492c-5.941 7.99-13.817 14.42-25.822 14.42h-5.154c18.877 32.553 54.907 54.594 96.16 54.594a113.2 113.2 0 0 0 32.674-4.785c.432-.133.88-.202 1.332-.205a4.369 4.369 0 0 1 2.213 8.019 141.706 141.706 0 0 1-205.348-57.615H36.022l65.19-147.495h37.666a141.63 141.63 0 0 1 108.909-55.209c1.024-.021 2.06-.032 3.083-.032 60.285 0 110.85 36.072 131.321 89.138l-37.066 51.93h56.437a151.5 151.5 0 0 0-208.82-139.542c63.195-39.391 144.067-36.059 203.807 8.398s86.157 120.966 66.573 192.812M253.34 272.709h-60.985c0-.205-.015-.415-.015-.624 0-51.164 41.492-93.334 94.47-96.002a108.08 108.08 0 0 1 33.035 3.463zm132.234-48.864a140.2 140.2 0 0 1 5.11 28.104h-25.163z"/><path fill="url(#a)" d="M172.741 37.859c57.15-23.362 122.76-9.706 165.843 34.52s55.015 110.17 30.164 166.69h74.374c19.603-71.85-6.808-148.373-66.556-192.835S235.935-1.552 172.741 37.86" transform="translate(20 84.996)"/><path fill="#d7d2cb" d="m382.175 210.487-14.316 20.062a72.8 72.8 0 0 0-52.266-22.043q-1.844 0-3.657.093l24.607-34.477a104.6 104.6 0 0 1 45.632 36.365m14.188 92.001a151.5 151.5 0 0 0 5.2-39.457v-.642h-15.477a73.17 73.17 0 0 1-.512 40.098z"/><path fill="#ffd100" d="M328.296 381.69c-43.848 28.616-99.901 30.726-145.776 5.485a136.8 136.8 0 0 1-24.582-48.2c15.842-.737 38.785.632 55.743 7.92a111.7 111.7 0 0 0 78.398 31.765 113.2 113.2 0 0 0 32.674-4.785 4.6 4.6 0 0 1 1.332-.205 4.369 4.369 0 0 1 2.211 8.02m-145.805-98.536c-.393-3.674-.59-7.367-.59-11.062 0-56.885 46.312-103.501 104.379-106.422-67.32 2.74-122.452 52.915-131.86 117.49z"/><path fill="#ffa300" d="M195.914 324.065h-41.233a135 135 0 0 0 3.252 14.912c15.843-.737 38.785.632 55.744 7.92a107.6 107.6 0 0 1-17.763-22.832"/><path fill="#ff8200" d="M122.953 324.065a141.9 141.9 0 0 0 19.271 29.932 47.3 47.3 0 0 1 15.71-15.02 135 135 0 0 1-3.253-14.912z"/><path fill="url(#b)" d="M316.531 89.12a115.8 115.8 0 0 0-44.453-8.603q-2.917 0-5.796.148c-67.32 2.74-122.45 52.915-131.86 117.49H96.091l47.215-106.581h-24.428a141.63 141.63 0 0 1 108.909-55.209c1.024-.021 2.06-.032 3.083-.032 60.285 0 110.85 36.072 131.322 89.138l-.016.023a104.6 104.6 0 0 0-45.645-36.373M137.933 253.979a47.3 47.3 0 0 0-15.709 15.02 142.4 142.4 0 0 0 40.294 33.18 136.8 136.8 0 0 1-24.583-48.2z" transform="translate(20 84.996)"/><path fill="#fff" d="M388.635 281.543c0 7.093-1.03 14.15-3.06 20.945H316.5L301.1 324.065h-71.59l82.426-115.468q1.817-.09 3.657-.093a72.8 72.8 0 0 1 52.266 22.043l-22.734 31.846h40.959a73.1 73.1 0 0 1 2.551 19.15M101.211 176.57l-65.19 147.495H201.07c12.005 0 19.885-6.428 25.821-14.422l18.829-26.49H116.09l47.215-106.583z"/></g></g></svg>