<svg xmlns="http://www.w3.org/2000/svg" width="500" height="500" viewBox="0 0 500 500"><g fill="none" fill-rule="evenodd"><path d="M0 0h500v500H0z"/><path fill="#fff" d="M488.716 355.524c-26.598-35.822-73.022-79.578-128.33-104.142l11.296 26.026c-47.03-23.686-99.308-40.69-158.57-40.42l12.63 13.674C116.273 254.95 52.052 309.233 10 355.524c.984-62.68 45.894-119.283 105.061-153.84l-12.178-11.304c44.034-30.476 105.793-39.028 157.919-33.007L253.39 144c172.675 12.832 245.815 141.7 235.326 211.524"/><path fill="#0080c6" d="m212.304 245.369-13.266-14.366c50.278-1.671 101.106 5.899 160.235 33.69l-10.893-25.1c44.515 17.247 93.837 49.44 135.194 99.373-3.642-75.608-79.999-173.58-218.881-187.59l7.722 13.931c-56.132-9.536-119.203.388-159.34 25.981l12.551 11.65C65.21 235.34 25.521 286.882 17.002 338.966c49.866-52.084 114.697-88.058 195.302-93.597"/><path fill="#ffc20e" d="M461.9 298.375c-23.533-63.346-94.316-117.961-173.776-131.036l9.334 16.633c-47.858-14.804-117.405-13.907-163.12 9.947l13.113 12.172c-41.901 17.956-86.113 56.41-103.613 91.742 28.7-25.887 91.139-55.852 142.362-62.22l-12.728-13.78c49.23-9.759 114.84-.1 161.616 18.893l-9.073-20.91c34.45 7.062 98.472 37.843 135.886 78.56"/></g></svg>