<svg xmlns="http://www.w3.org/2000/svg" xml:space="preserve" width="296" height="223.16" viewBox="0 0 296 223.162"><g fill="#fff" fill-opacity=".941" clip-path="url(#a)" transform="matrix(.48433 0 0 -.48433 .005 302.795)"><path d="m588.54 519.65-37.25-8.796v-323.96H394.01l-167.72 169.46v-82.41l35.54-10.424v-76.59H24.28v76.771l41.601 10.332v236.68l-43.27 9.098v82.751h214.32l160.38-167.36v75.342l-30.185 9.147v82.866h221.4v-82.909zM344.52 625.18V522.99l-97.933 102.19H-.003V501.46l43.27-9.098v-200.63L1.666 281.405v-117.08h282.78v101.21l100.12-101.27h189.34v328.7l37.25 8.798v123.42h-266.63"/></g><path fill="#003b66" d="m184.64 136.158 5.37 16.956-14.497-10.976-14.488 10.406 5.61-16.577-13.647-10.976h16.962l5.563-15.864 5.545 15.864h17.636L184.64 136.16zm33.956 14.088 5.554 15.906h17.665l-14.075 11.105 5.371 16.997-14.515-11.007-14.483 10.421 5.65-16.565-13.664-10.951h16.953zm-86.21-49.27-14.506 10.42 5.614-16.562-13.619-10.965h16.944l5.567-15.89 5.503 15.89h17.683l-14.066 11.107 5.336 16.992-14.456-10.993zM98.377 53.84l5.376 16.99-14.501-10.977-14.489 10.438 5.623-16.616-13.641-10.946h16.95l5.557-15.86 5.525 15.86h17.694L98.377 53.84zm79.444-2.75 14.62 4.43v36.49l-77.677-81.056h-103.8v40.079l20.957 4.406v114.63l-20.149 5.004v37.182h115.052v-37.094l-17.213-5.049V130.2l81.23 82.074h76.175V55.37l18.041-4.26V10.956h-107.23V51.09"/><g fill="#fff"><path d="m94.773 42.732-5.525-15.86-5.557 15.86H66.74l13.642 10.946-5.623 16.616 14.488-10.438 14.501 10.977-5.376-16.99 14.094-11.112H94.773M155.57 83.87h-17.683l-5.502-15.89-5.568 15.89h-16.943l13.618 10.965-5.614 16.563 14.507-10.421 14.455 10.993-5.335-16.992zM175.515 109.128l-5.563 15.865H152.99l13.646 10.975-5.61 16.578 14.489-10.407 14.497 10.977-5.37-16.956 14.054-11.168H181.06l-5.545-15.865M209.761 177.103l-5.65 16.565 14.483-10.42 14.516 11.006-5.372-16.997 14.075-11.105h-17.665l-5.554-15.906-5.543 15.906h-16.953z"/></g></svg>