<svg xmlns="http://www.w3.org/2000/svg" viewBox="0 0 195.515 258.369"><path d="m273.33 527.413.44-156.59c30.817 26.82 77.856-.277 89.25-21.983 22.185 39.471 77.195 37.771 88.812 21.543l.44 161.795c-.22 35.557-68.329 18.58-89.459 53.13-21.442-37.594-88.138-16.18-89.483-57.895z" style="fill:#003a73;fill-opacity:1;fill-rule:evenodd;stroke:#000;stroke-width:0;stroke-linecap:butt;stroke-linejoin:miter;stroke-miterlimit:4;stroke-dasharray:none;stroke-opacity:1" transform="translate(-265.044 -337.89)"/><path d="m281.164 523.428.4-78.46 162.473-.041.401 82.692c.11 32.496-62.346 16.342-81.626 46.729-19.565-33.065-81.349-13.275-81.648-50.92z" style="fill:#fff;fill-opacity:1;fill-rule:evenodd;stroke:#000;stroke-width:0;stroke-linecap:butt;stroke-linejoin:miter;stroke-miterlimit:4;stroke-dasharray:none;stroke-opacity:1" transform="translate(-265.044 -337.89)"/><path d="M341.83 436.062c2.09-10.248 5.026-19.368 8.742-27.448l-3.456-1.83 1.22-2.237c8.46 1.997 7.826 3.16 10.37 4.677l-1.627 2.846-4.067-1.83c-5.38 8.459-7.069 17.445-8.743 26.432 22.168-1.154 52.754-18.596 38.225-57.133-3.29 1.486-6.401 3.328-9.15 5.896l2.847 2.643-2.033 1.83c-2.056-2.214-4.347-4.193-8.54-4.27l2.643-1.83 3.457.407c1.673-2.033 4.563-4.066 8.946-6.1-32.539-.227-47.638 22.864-38.835 57.947z" style="fill:#fff;fill-rule:evenodd;stroke:#000;stroke-width:0;stroke-linecap:butt;stroke-linejoin:miter;stroke-miterlimit:4;stroke-dasharray:none;stroke-opacity:1" transform="translate(-265.044 -337.89)"/><path d="m225.802 340.775-22.721-16.118-22.577 16.318 8.307-26.59-22.496-16.429 27.855-.316 8.674-26.472 8.908 26.394 27.857.07-22.35 16.628z" style="opacity:1;fill:#fff;fill-opacity:1;stroke:#025;stroke-width:0;stroke-linecap:butt;stroke-linejoin:miter;stroke-miterlimit:4;stroke-dasharray:none;stroke-opacity:1" transform="translate(-38.108 -38.442)scale(.32478)"/><path d="m225.802 340.775-22.721-16.118-22.577 16.318 8.307-26.59-22.496-16.429 27.855-.316 8.674-26.472 8.908 26.394 27.857.07-22.35 16.628z" style="opacity:1;fill:#fff;fill-opacity:1;stroke:#025;stroke-width:0;stroke-linecap:butt;stroke-linejoin:miter;stroke-miterlimit:4;stroke-dasharray:none;stroke-opacity:1" transform="translate(-6.966 -38.442)scale(.32478)"/><path d="m225.802 340.775-22.721-16.118-22.577 16.318 8.307-26.59-22.496-16.429 27.855-.316 8.674-26.472 8.908 26.394 27.857.07-22.35 16.628z" style="opacity:1;fill:#fff;fill-opacity:1;stroke:#025;stroke-width:0;stroke-linecap:butt;stroke-linejoin:miter;stroke-miterlimit:4;stroke-dasharray:none;stroke-opacity:1" transform="translate(-38.108 -10.933)scale(.32478)"/><path d="m225.802 340.775-22.721-16.118-22.577 16.318 8.307-26.59-22.496-16.429 27.855-.316 8.674-26.472 8.908 26.394 27.857.07-22.35 16.628z" style="opacity:1;fill:#fff;fill-opacity:1;stroke:#025;stroke-width:0;stroke-linecap:butt;stroke-linejoin:miter;stroke-miterlimit:4;stroke-dasharray:none;stroke-opacity:1" transform="translate(-6.966 -10.933)scale(.32478)"/><path d="m225.802 340.775-22.721-16.118-22.577 16.318 8.307-26.59-22.496-16.429 27.855-.316 8.674-26.472 8.908 26.394 27.857.07-22.35 16.628z" style="opacity:1;fill:#fff;fill-opacity:1;stroke:#025;stroke-width:0;stroke-linecap:butt;stroke-linejoin:miter;stroke-miterlimit:4;stroke-dasharray:none;stroke-opacity:1" transform="translate(70.89 -38.442)scale(.32478)"/><path d="m225.802 340.775-22.721-16.118-22.577 16.318 8.307-26.59-22.496-16.429 27.855-.316 8.674-26.472 8.908 26.394 27.857.07-22.35 16.628z" style="opacity:1;fill:#fff;fill-opacity:1;stroke:#025;stroke-width:0;stroke-linecap:butt;stroke-linejoin:miter;stroke-miterlimit:4;stroke-dasharray:none;stroke-opacity:1" transform="translate(102.031 -38.442)scale(.32478)"/><path d="m225.802 340.775-22.721-16.118-22.577 16.318 8.307-26.59-22.496-16.429 27.855-.316 8.674-26.472 8.908 26.394 27.857.07-22.35 16.628z" style="opacity:1;fill:#fff;fill-opacity:1;stroke:#025;stroke-width:0;stroke-linecap:butt;stroke-linejoin:miter;stroke-miterlimit:4;stroke-dasharray:none;stroke-opacity:1" transform="translate(70.89 -10.933)scale(.32478)"/><path d="m225.802 340.775-22.721-16.118-22.577 16.318 8.307-26.59-22.496-16.429 27.855-.316 8.674-26.472 8.908 26.394 27.857.07-22.35 16.628z" style="opacity:1;fill:#fff;fill-opacity:1;stroke:#025;stroke-width:0;stroke-linecap:butt;stroke-linejoin:miter;stroke-miterlimit:4;stroke-dasharray:none;stroke-opacity:1" transform="translate(102.031 -10.933)scale(.32478)"/><path d="M350.776 400.684c4.958 1.557 7.465 3.604 9.76 5.693l2.032-2.846c-2.476-2.81-6.505-4.068-10.572-5.287zM354.842 395.601c4.959 1.557 7.466 3.604 9.76 5.693l2.033-2.846c-2.477-2.81-6.505-4.068-10.573-5.287zM360.332 389.705c4.959 1.556 7.466 3.603 9.76 5.693l2.032-2.847c-2.476-2.81-6.504-4.067-10.572-5.286z" style="fill:#003a73;fill-opacity:1;fill-rule:evenodd;stroke:#000;stroke-width:0;stroke-linecap:butt;stroke-linejoin:miter;stroke-miterlimit:4;stroke-dasharray:none;stroke-opacity:1" transform="translate(-265.044 -337.89)"/><path d="m290.999 452.532.203 11.386 6.1 2.643.406 54.897-6.71 2.643v8.54l24.196 6.1-.203-10.37-4.677-4.88-.203-29.075 16.266 46.764 12.403 3.863.61-78.482 4.066-3.253v-10.776H320.48v10.776l5.287 3.05.203 35.988-16.266-50.018zM348.132 538.537l.204 8.743 23.585 8.743v-10.166l-5.083-5.49v-39.241l7.523.203 3.66 4.676 6.1-.203.203-21.552-6.913-.203-2.847 4.676-7.523.203v-23.382l9.353.407 3.457 7.93 9.15-.204.203-20.739h-41.682l.204 10.573 5.286 3.457.61 68.926zM393.27 452.735v10.98l4.27 2.44.61 62.42-4.88 5.692.407 9.353 40.868-11.59-.407-25.821-9.963-.204-1.423 15.453-9.963 3.253.203-57.947 5.083-4.066-.203-10.166z" style="fill:#da2127;fill-opacity:1;fill-rule:evenodd;stroke:#000;stroke-width:0;stroke-linecap:butt;stroke-linejoin:miter;stroke-miterlimit:4;stroke-dasharray:none;stroke-opacity:1" transform="translate(-265.044 -337.89)"/></svg>