<svg xmlns="http://www.w3.org/2000/svg" width="500" height="500" fill="none" viewBox="0 0 500 500"><path fill="#fff" d="M249.999 393.169c-33.696 0-89.884-8.851-137.337-33.811-46.445-24.422-80.208-52.752-95.079-79.786-5.03-9.148-7.65-19.372-7.584-29.577-.067-10.205 2.554-20.429 7.584-29.568 14.87-27.034 48.634-55.373 95.079-79.786 47.462-24.96 103.641-33.811 137.337-33.811s89.876 8.851 137.338 33.811c46.445 24.423 80.208 52.752 95.078 79.786 5.031 9.139 7.652 19.363 7.584 29.568.068 10.205-2.553 20.429-7.584 29.568-14.87 27.033-48.633 55.373-95.078 79.785-47.453 24.951-103.642 33.812-137.338 33.812"/><path fill="#115740" d="M476.502 249.995c.068-8.208-2.054-16.31-6.019-23.51-13.382-24.336-45.667-51.36-89.625-74.468C335.603 128.219 282.237 119.8 250 119.8s-85.603 8.419-130.858 32.217c-43.958 23.108-76.233 50.132-89.625 74.468-3.955 7.19-6.087 15.292-6.02 23.51-.067 8.208 2.065 16.31 6.02 23.51 13.382 24.336 45.667 51.36 89.625 74.468C164.397 371.771 217.763 380.19 250 380.19s85.603-8.419 130.858-32.217c43.958-23.108 76.233-50.132 89.625-74.468 3.955-7.19 6.087-15.292 6.019-23.51"/><path fill="#fff" d="m357.366 226.331-14.803 25.641c-1.565 2.717-.356 6.192 2.563 7.344l26.976 10.647h-57.888l-8.89 15.398h86.871a5.13 5.13 0 0 0 4.444-2.563l14.804-25.642c1.564-2.716.355-6.192-2.564-7.344l-33.484-13.209h47.913l7.411-12.835H361.82a5.13 5.13 0 0 0-4.445 2.563zM341.172 236.603l7.411-12.835h-82.137l-7.411 12.835h20.534l-28.157 48.768h41.069l28.157-48.768zM248.761 236.603l7.412-12.835h-66.73l-35.568 61.603h84.701l8.889-15.408h-43.632l5.933-10.263h23.088l7.411-12.835h-23.097l5.933-10.262z"/><path fill="#fff" d="M421.629 208.158s-6.087-1.229-23.971-2.467l-62.688-6.164c-34.455-3.043-64.695-10.963-92.736-30.643h-.941l23.664 38.199H145.168l-34.819 60.316a5.15 5.15 0 0 1-4.445 2.564H67.802l-8.89 15.398h76.205c3.667 0 7.056-1.958 8.89-5.136l38.534-66.73h254.102c-3.158-1.843-8.227-4.176-15.014-5.347z"/></svg>