<svg xmlns="http://www.w3.org/2000/svg" width="500" height="500" fill="none" viewBox="0 0 500 500"><path fill="#fff" fill-rule="evenodd" d="m289.196 108.914-23.361 24.484c38.267-15.9 121.712-43.197 121.712-43.197l-26.736 26.153C433.788 94.747 489.244 84.51 489.244 84.51s-16.07 37.398-40.077 74.848c4.644-.501 34.956-4.034 34.956-4.034s-27.297 45.219-58.818 77.811l17.642 4.389s-27.488 39.613-63.766 71.947c-52.171 46.491-79.015 39.35-79.015 39.35-38.728 28.049-69.768 13.834-69.768 13.834s13.41-33.845-.445-37.438c-12.489-3.245-31.489 6.519-33.861 10.436-2.466 8.54-12.849 30.228-23.575 43.355-20.569 25.164-43.376 35.45-43.376 35.45s-17.965-15.33-18.082-41.428c0 0-12.34 13.071-32.427 17.343-14.061 2.991-33.251.562-52.91-15.851C12.522 363.504 10 326.478 10 326.478s12.404-23.696 36.327-44.463c-5.295-4.542-8.54-10.257-9.559-13.786 63.588-27.754 63.633-54.248 114.186-86.456 49.806-31.731 81.105-46.322 138.242-72.859" clip-rule="evenodd"/><path fill="#004851" fill-rule="evenodd" d="m258.221 131.39-19.978 20.94c39.455-17.464 122.775-45.829 122.775-45.829l-24.182 23.656c85.43-26.449 139.613-35.409 139.613-35.409s-17.707 39.463-41.27 72.985c11.41-1.095 35.207-3.86 35.207-3.86s-23.797 39.872-58.968 73.644c3.908.574 19.869 4.215 19.869 4.215s-21.211 31.473-58.075 63.754c-47.058 41.201-67.933 36.323-67.933 36.323s.452-1.609.408-4.111c-.032-1.382-.327-2.635-.34-2.736-36.225 34.092-66.405 22.589-66.405 22.589s13.399-32.438-7.153-38.986c-15.921-5.068-40.308 7.962-42.252 14.942-2.114 7.591-12.226 28.656-22.254 40.999-17.395 21.417-36.65 31.19-36.65 31.19s-17.505-13.467-11.434-52.882c1.326-8.588-.376-11.943-1.314-13.386-2.873-4.397-25.268.4-30.733 12.893-3.855 8.823 18.398 16.28 18.398 16.28S95.28 379.93 77.331 383.6c-11.288 2.308-28.769 1.572-47.122-14.32-10.86-9.401-13.111-41.213-13.111-41.213s13.414-24.573 39.544-45.796c-5.158-3.375-9.074-9.094-10.064-11.341 52.651-22.678 59.869-54.745 119.307-90.579 27.701-16.7 56.878-33.134 92.336-48.961" clip-rule="evenodd"/><path fill="#000" fill-rule="evenodd" d="M399.161 242.241c-.429-.085-.78-.154-1.036-.207 37.435-35.716 54.014-69.064 54.014-69.064s-15.42.84-29.723 1.847c23.68-33.268 34.827-66.038 34.827-66.038s-47.449 9.987-70.16 14.841c-42.644 9.11-76.489 20.702-76.489 20.702l20.415-19.776s-65.467 20.665-104.106 39.629c-4.28 2.097-14.094 6.293-14.094 6.293l11.721-14.752s-31.06 13.256-71.635 40.251c-15.389 10.239-27.31 21.957-39.131 33.577-16.46 16.181-32.729 32.173-57.902 43.716 0 0 2.793 4.656 11.762 8.096-8.46 6.07-28.878 22.403-44.37 48.084 0 0 2.938 28.534 10.84 35.292 32.212 27.552 60.055 5.323 60.055 5.323s-19.283-8.544-13.774-20.714c6.83-15.112 28.486-17.723 34.193-17.46 0 0 14.312-.703 10.529 21.918-5.129 30.685 6.83 44.309 6.83 44.309s37.418-21.441 52.158-67.011c5.679-17.549 79.719-41.908 62.267 22.023 14.372 3.326 48.989-9.393 60.326-30.115 2.368 2.971 4.329 7.28 4.668 12.332 30.212-2.369 84.269-59.971 102.356-89.306-4.234-1.755-11.428-3.175-14.541-3.79m-253.674 32.058c4.385-2.619 6.341-7.397 4.373-10.679-1.111-1.855-3.254-2.804-5.679-2.833a215 215 0 0 0 1.516-1.89l.728-.911c2.918.328 5.44 1.694 6.85 4.038 2.785 4.644.19 11.297-5.8 14.865-5.989 3.577-13.099 2.708-15.887-1.928a8 8 0 0 1-.797-1.847 29 29 0 0 0 2.583-1.632c.121.561.303 1.107.606 1.608 1.973 3.286 7.122 3.824 11.507 1.209" clip-rule="evenodd"/><path fill="#fff" fill-rule="evenodd" d="M218.244 275.408c32.616-10.658 53.302-.611 53.302-.611-39.536-4.805-69.016 16.001-79.165 28.979 5.719-11.547 14.158-18.992 14.158-18.992a63 63 0 0 0-6.03 3.428c-8.144 4.688-41.496 21.627-70.459 3.633a64 64 0 0 1-4.62-3.136c9.632 5.044 25.523 5.472 32.12-1.019-23.095 5.958-27.197-4.587-27.69-11.147-1.492.283-3.888.101-5.679-.315 0 0 3.779-1.604 5.655-2.574.229-.118.453-.248.678-.379l.275-.159c.186.639.449 1.265.797 1.847 2.788 4.636 9.898 5.505 15.888 1.928 5.989-3.569 8.584-10.221 5.799-14.865-1.41-2.345-3.932-3.711-6.85-4.038.306-.356.655-.776 1.046-1.248 2.259-2.721 5.94-7.155 11.2-10.938-4.543 5.448-5.994 9.135-6.168 9.599 2.785.437 5.226 1.629 6.403 3.84 2.315 4.333.739 7.736-.102 9.478l-.007-.004h-.005c-1.544 3.265-4.413 6.487-8.277 8.924-5.23 3.302-10.961 4.336-15.177 3.148 0 0 .756 1.378 1.981 2.191 2.037 1.362 8.055 3.346 16.757-.586 3.225-1.459 5.646-3.116 7.493-4.798 5.035-3.778 6.617-8.367 8.143-12.794.457-1.327.909-2.639 1.448-3.91 5.509-13.018 16.886-24.291 30.143-28.971-6.03.735-12.702 3.719-17.973 6.076-5.745 2.57-9.825 4.394-9.591 1.749.21-2.361 6.967-24.853 48.362-42.062l.385-.14c.626-.228 1.251-.456 1.895-.681 0 0-20.099 3.112-50.388 21.171-11.911 7.105-22.613 16.926-28.029 24.387.193-3.976 1.971-7.853 3.494-11.176.355-.774.696-1.518 1-2.226-6.428 4.14-8.277 9.205-10.254 14.62-1.489 4.081-3.051 8.36-6.701 12.593-3.718 3.965-7.634 7.76-11.789 10.46-24.004 15.633-47.7 5.905-47.7 5.905 25.398-13.728 30.143-19.059 41.447-31.757 3.014-3.385 6.493-7.293 10.953-12.023 23.761-25.188 38.36-38.162 78.349-57.772-1.501 1.934-5.698 5.88-9.445 9.402-2.782 2.616-5.316 4.997-6.31 6.146 0 0 8.023-4.292 23.216-11.502 53.883-25.584 93.666-35.11 93.666-35.11s-9.854 7.052-16.664 11.571c-9.239 6.131-17.42 12.056-17.42 12.056s.36-.161 1.027-.444c77.568-24.311 141.641-16.709 141.641-16.709-41.932 4.042-75.842 12.012-93.836 20.233 0 0 24.844-4.268 37.475-4.268 12.355 0 22.459 1.2 22.459 1.2-79.035 12.332-121.546 35.175-131.908 41.327-4.313 1.835-6.572 2.978-6.572 2.978s12.889-4.037 29.225-8.087c28.749-4.409 70.819-2.037 111.41 10.011 0 0-28.143-1.491-40.442-1.216-36.727.816-74.577 15.585-74.577 15.585 23.907-6.027 50.113-1.589 50.113-1.589-10.189.586-35.244 7.279-47.817 12.457-18.115 7.461-36.424 18.086-49.766 27.9-5.395 3.201-8.281 5.31-8.281 5.31s6.846-3.678 18.369-8.123c19.643-6.609 52.91-12.506 89.863-.093-56.951-11.346-101.943 15.33-101.943 15.33m-77.463-2.037s-2.603.214-4.297-1.035c-.962-.711-1.374-1.552-1.544-2.037a44 44 0 0 0 3.246-2.866c-.113 1.856.311 4.212 2.595 5.938" clip-rule="evenodd"/><path fill="#a2aaad" fill-rule="evenodd" d="M320.637 166.685c17.994-8.221 51.904-16.191 93.837-20.233 0 0-64.073-7.602-141.642 16.709 5.428-2.3 32.641-13.281 74.747-21.098 40.49-7.513 76.162-10.391 76.162-10.391s-8.043 24.978-28.526 44.766c-3.37.335-7.912.675-13.287 1.078-17.544 1.313-43.963 3.291-67.47 7.947-32.556 6.45-55.295 15.031-65.795 19.481 10.363-6.152 52.873-28.995 131.909-41.327 0 0-10.104-1.2-22.46-1.2-12.63 0-37.475 4.268-37.475 4.268m21.648 41.945c12.299-.275 40.441 1.217 40.441 1.217-40.591-12.049-82.661-14.421-111.409-10.012 9.764-2.412 20.758-4.837 30.975-6.406 47.373-7.287 112.8-.262 112.8-.262s-3.027 9.623-17.25 25.22c-13.41 14.716-18.446 18.592-18.446 18.592-77.071-16.422-137.802 13.341-159.158 26.004 13.341-9.813 31.65-20.439 49.765-27.9 12.574-5.177 37.628-11.87 47.817-12.456 0 0-26.206-4.438-50.113 1.588 0 0 37.851-14.768 74.578-15.585m-168.098 37.483s-7.425 4.418-8.536.142c-2.951-11.386 16.995-33.874 54.93-48.028a150 150 0 0 1 1.52-.545c-41.395 17.209-48.153 39.701-48.363 42.062-.234 2.645 3.846.82 9.591-1.749 5.271-2.357 11.944-5.341 17.973-6.076-13.256 4.68-24.634 15.952-30.143 28.971-.538 1.271-.991 2.583-1.448 3.91-1.526 4.426-3.108 9.016-8.143 12.794 5.792-5.266 5.732-10.714 5.732-10.714s-3.044 1.834-5.643 2.117c-.857.093-1.875-.052-2.853-.278 1.232-2.413 1.294-4.175 1.317-4.811l.005-.12c4.021-9.175 14.061-17.675 14.061-17.675m57.545 41.418c53.484-13.269 90.651 2.817 95.118 19.716 0 0 .181-.089.525-.275q.33-.178.849-.439c3.051-1.549 10.899-5.533 22.136-16.589 13.136-12.929 21.369-23.3 24.622-30.28-54.708-27.423-115.083-10.917-144.656.505 19.642-6.608 52.91-12.505 89.863-.093-56.952-11.345-101.944 15.33-101.944 15.33 32.617-10.658 53.302-.61 53.302-.61-39.536-4.806-69.016 16.001-79.165 28.979a57 57 0 0 0-2.17 4.975c9.154-8.625 18.943-15.621 41.52-21.219m-30.102 21.438s13.479-10.14 36.355-6.462c33.841 5.44 32.871 26.76 32.871 26.76s15.233-6.552 22.937-19.95c0 0-9.555-9.118-26.833-12.17-45.053-7.958-65.33 11.822-65.33 11.822m-92.474-24.602c-8.69 2.66-19.712 1.9-25.794.251-1.216.838-2.98 1.855-5.149 3.107-10.342 5.966-29.897 17.248-43.174 39.723l.077.862c.813 9.077 1.823 20.346 5.493 26.613 15.443 24.392 42.421 15.375 42.421 15.375s-40.987-18.188 2.825-44.701c13.989-8.464 52.684-14.817 75.762-7.397 1.968.724 4.401 2.454 4.236 2.894-2.393 11.749-12.081 44.649-28.143 54.001-3.648-5.327-1.841-13.492-.104-21.342 2.49-11.256 4.838-21.865-9.244-22.534 0 0 5.945 9.219 3.383 21.602l-.216 1.016v.003c-1.301 6.076-4.236 19.789 2.002 33.95 0 0 36.335-21.732 47.118-71.889q.33-1.171.636-2.287c1.092-3.966 2.048-7.439 3.855-10.631-46.686 18.398-75.984-18.616-75.984-18.616m-14.041 15.968c-3.347.994-10.577 2.021-7.142-3.128 0 0 4.349-2.344 10.165-5.359 2.502 2.049 5.101 3.48 11.903 4.13 0 0-12.214 3.549-14.926 4.357" clip-rule="evenodd"/></svg>