<svg xmlns="http://www.w3.org/2000/svg" width="500" height="500" viewBox="0 0 500 500"><g fill="none" fill-rule="evenodd"><path d="M0 0h500v500H0z"/><path fill="#b1babf" d="M366.436 338.882a2274 2274 0 0 1-26.57 39.258c8.733 7.22 8.211 16.315 8.211 18.04-.168 9.672-5.317 16.89-10.033 21.11-5.866 5-13.882 7.424-22.34 7.486-.248 0-6.3-.186-8.38-.664-.893 1.31-2.618 2.903-5.423 4.044-.309.885-.735 1.77-1.292 2.61a12.09 12.09 0 0 1-10.042 5.397s-3.955-.115-6.689-1.999a12.06 12.06 0 0 1-5.433-10.06v-.107a11.9 11.9 0 0 1 1.363-5.476c-.407-.965-1.831-6.725-1.831-6.725l3.724-3.282c.301-.177 1.221-1.566 2.257-5.114 1.097-3.46 2.406-8.6 5.149-14.59 3.495-7.61 8.343-15.484 11.883-20.934-.346-1.743-2.177-2.548-3.495-2.866-1.478-.399-3.3-1.257-4.75-2.947-1.523-1.77-2.69-4.264-2.037-7.485.646-3.176 2.637-5.468 4.964-6.538v-.01c2.637-1.37 5.893-.716 5.893-.716 7.76.717 13.492 7.919 13.492 7.919 7.724-10.777 25.694-37.506 26.075-38.09-23.553 4.504-47.884 5.114-68.092 1.761-36.745-6.096-65.014-25.658-83.275-34.577-18.262-8.91-53.051-18.04-88.938-8.91-35.877 9.131-59.572 42.186-59.572 42.186 10.715-75.488 57.475-88.212 61.961-89.486 6.813-6.379 15.749-25.844-5.415-38.974-7.228-4.486-13.298-10.166-13.298-10.166 4.433.522 14.829-.85 20.598-3.132 6.927-2.734 13.298-3.645 13.298-3.645-5.468-5.212-13.82-7.822-13.82-7.822 8.343-.522 21.385-3.388 29.463-7.042 8.078-3.646 12.51-10.167 11.2-13.033-1.3-2.876-8.6-1.3-8.6-1.3 2.61-3.912 8.866-5.478 8.866-5.478-17.987-1.044-31.09 8.75-31.09 8.75 1.999-4.29 8.573-12.006 8.573-12.006-2.495.823-9.405 2.982-9.839 3.115 28.162-21.748 59.598-40.868 103.642-41.151 44.036-.292 86.938 19.447 115.525 28.596 28.605 9.148 43.78 13.767 74.666 9.202 14.785-2.195 27.73-8.255 37.214-13.936 0 0 6.636-16.872 7.141-41.097 0 0 7.953 14.262 7.989 36.47.08 76.214-36.851 131.876-48.654 152.138-11.281 19.933-26.11 43.804-44.239 71.276m81.214-279.88s1 18.323-2.46 35.099c-3.345 16.209-5.185 22.385-5.185 22.385-7.078 4.15-18.536 9.254-35.285 12.041-31.259 5.212-59.625-3.185-90.592-15.342-30.976-12.156-72.418-25.251-110.87-20.836-37.285 4.282-63.96 19.385-78.144 29.233-14.183 9.838-16.793 12.44-28.95 15.917 0 0 9.556 3.76 14.475 3.76 0 0-2.318 9.565-1.45 12.74 0 0 20.26-9.263 22.579-4.918s-7.238 7.246-13.891 8.971c-6.654 1.743-24.03 1.442-24.03 1.442s8.148 6.309 11.024 10.688c0 0-15.36 6.69-32.445 4.371 0 0-.566 6.326 13.475 16.687-2.99 1.07-6.777 2.805-9.122 5.309 0 0 14.714-3.035 23.96 7.264 2.433 3.052 3.23 5.786 2.955 9.237-.504 6.255-2.902 8.644-8.795 12.537-3.37 1.371-6.954 3.088-10.414 5.202-16.27 9.998-28.17 25.216-36.523 42.602-3.619 7.53-6.512 16.28-8.556 24.217-2.044 7.98-2.796 15.067-3.273 19.491-.478 4.415-1.133 18.333-1.133 18.333s7.3-10.228 10.723-15.13c3.407-4.884 24.995-32.029 56.44-39.894 10.06-2.557 20.076-3.628 29.649-3.628 23.013-.018 43.566 6.229 55.732 12.183 17.66 8.547 46.672 28.72 84.708 35.028 8.955 1.478 18.607 2.212 28.614 2.212 9.6 0 19.535-.699 29.463-2.052a1181 1181 0 0 1-16.103 23.437c-5.185-4.937-12.219-5.45-12.219-5.45-8.53-.805-12.802 4.389-12.802 4.389a14.1 14.1 0 0 0-3.522 7.149c-.602 2.645.115 5.725.611 7.29 1.627 5.167 6.042 7.52 7.759 8.273-12.467 16.607-16.085 35.728-16.085 35.736l-5.69 5.016 2.053 8.317c-3.167 10.202 1.805 17.855 8.255 21.023 6.548 3.22 12.661 1.353 12.661 1.353a17.25 17.25 0 0 0 10.67-8.697 18 18 0 0 0 3.442-2.389c1.797.204 6.397.345 6.397.345 9.432-.08 18.651-2.752 25.685-8.724 5.539-4.954 11.635-13.404 11.847-24.95 0-2.168.399-10.91-6.821-18.528 45.558-66.888 75.135-109.95 94.016-153.764 50.025-116.136 7.352-164.56 7.167-164.975"/><path fill="#000" d="M297.486 398.888c-.009.017-.018.044-.027.062-.009.008-.009.017-.009.026l.027-.053c0-.018.009-.027.009-.035m90.99-104.705c-20.049 9.344-66.313 24.836-112.384 16.236-16.032-2.99-37.134-7.998-65.04-24.915-18.306-11.086-38.072-21.686-84.15-21.482-38.17.185-62.687 17.483-70.49 23.915 20.712-67.58 81.938-57.696 81.938-57.696-11.174-5.362-24.587-3.31-24.587-3.31 19.181-30.179-11.724-44.309-11.724-44.309 2.602 0 14.334-3.388 20.324-5.476 5.998-2.08 17.005-3.522 17.005-3.522-3.84-3.53-15.705-6.379-15.705-6.379 11.21 0 21.359-5.433 28.42-12.785 2.459-2.557 9.192-15.36 1.556-20.323-7.025-4.566-20.96.504-20.969.513.018-.018 41.717-44.947 127.77-25.747 40.824 9.113 86.84 33.02 129.328 33.276 14.28.089 45.787-4.547 64.588-23.473-.99 35.957-7.689 86.319-65.88 175.477M334.31 373.3c-.053-.044-.133-.097-.177-.133-1.088-.99-2.494-2.185-4.052-3.486 2.54-3.619 31.63-46.875 40.16-60.288a161 161 0 0 0 8.75-3.407c-5.768 9.122-37.24 56.546-44.68 67.314m-1.522 37.868c-3.946 3.442-10.652 5.636-17.66 5.504-6.246-.124-10.635-1.133-14.607-3.292a.5.5 0 0 0-.035.133c-.31.265-.939 1.707-5.53 2.389-3.08.504-4.866-.115-5.053-.177 5.415 5.477 10.317 2.026 10.317 2.026.23.956.566 1.637.566 1.637s-1.627 2.39-6.583 1.566c-.601-.097-1.115-.266-1.619-.451.097.053.186.088.283.15 1.903 1.248 2.416 3.805 1.17 5.698a4.133 4.133 0 0 1-5.717 1.168 4.12 4.12 0 0 1-1.16-5.707 4.08 4.08 0 0 1 4.592-1.663c-3.716-1.788-4.671-5.521-4.671-5.521 4.751-4.212 4.6-11.839 9.45-22.438.22-.487.468-.982.707-1.478a.1.1 0 0 1-.018.053c-1.053 2.637-2.061 7.167-1.645 10.467.088.717.23 1.372.398 2.009v.009c.07.291 1.699 6.883 6.149 5.812l-.699 1.567c1.947 1.212 6.406 3.326 13.997 3.424 10.662.141 16.492-6.874 18.094-12.095 1.257-4.061-.69-8.574-4.707-12.529 1.177-1.362 1.893-3.264 1.106-5.883.363 1.212-1.911 3.37-4.31 3.158a3.4 3.4 0 0 1-.654-.115c-3.619-1.008-7.742-5.415-11.236-8.025-3.478-2.61-4.495-6.653-4.424-9.52.053-2.867-.92-6.264-3.654-8.839-2.734-2.574-5.184-2.822-5.964-3.026-.787-.211-1.008-.699-.929-1.22.16-.859 1.266-.7 1.266-.7 6.636 1.328 11.484 7.902 12.554 9.83.991 1.77 11.467 9.954 15.52 13.537 1.893 1.38 10.095 7.671 11.563 14.121 1.743 7.698-2.919 14.988-6.857 18.421m-11.82-17.5c1.3.645 3.167 1.91 4.043 3.742.23.487.336.956.336 1.478.134 2.14-2.37 5.273-4.592 6.096-1.61.663-3.742.99-5.804.982-.654 0-1.3-.027-1.929-.089.584-.982 1.292-2.176 2.08-3.46 1.77-2.892 3.964-6.263 5.866-8.75m-18.474-12.732c1.752-2.973 3.592-5.893 5.459-8.795l.265-.398c-.08.61-.292 3.928.823 7.22.646 1.574 1.672 3.167 3.291 4.653a102 102 0 0 0 3.672 3.247c-4.9 6.335-11.847 18.183-11.847 18.183-2.973.177-4.46-.806-6.14-4.389a9 9 0 0 1-.567-1.672v-.009c-.884-3.69-.08-8.44-.06-8.573.122-.248 3.423-6.619 5.104-9.467m48.972-66.013c4.07-.991 8.096-2.07 12.05-3.31.115-.035.231-.07.346-.115-4.044 6.132-35.878 51.68-38.072 54.635-.177-.141-5.645-4.822-5.839-4.99 8.113-11.272 31.055-45.521 31.515-46.22M451.34 78.998c-.505 24.225-7.141 41.097-7.141 41.097-9.484 5.68-22.429 11.741-37.214 13.936-30.886 4.565-46.06-.054-74.666-9.202-28.587-9.149-71.49-28.888-115.525-28.596-44.044.283-75.48 19.403-103.642 41.15.434-.132 7.344-2.29 9.839-3.114 0 0-6.574 7.716-8.574 12.007 0 0 13.104-9.795 31.091-8.75 0 0-6.255 1.565-8.865 5.476 0 0 7.3-1.575 8.6 1.3 1.31 2.867-3.123 9.388-11.201 13.034-8.078 3.654-21.12 6.52-29.463 7.042 0 0 8.352 2.61 13.82 7.822 0 0-6.37.911-13.298 3.645-5.77 2.283-16.165 3.654-20.598 3.132 0 0 6.07 5.68 13.298 10.166 21.164 13.13 12.228 32.595 5.415 38.974-4.486 1.274-51.246 13.998-61.96 89.486 0 0 23.694-33.055 59.571-42.186 35.887-9.13 70.676 0 88.938 8.91 18.261 8.919 46.53 28.48 83.275 34.577 20.208 3.353 44.539 2.743 68.092-1.76-.38.583-18.35 27.312-26.075 38.089 0 0-5.733-7.202-13.492-7.919 0 0-3.256-.655-5.893.717v.009c-2.327 1.07-4.318 3.362-4.964 6.538-.653 3.22.514 5.716 2.036 7.485 1.45 1.69 3.273 2.548 4.75 2.947 1.319.318 3.15 1.123 3.496 2.866-3.54 5.45-8.388 13.325-11.883 20.934-2.743 5.99-4.052 11.13-5.15 14.59-1.035 3.548-1.955 4.937-2.256 5.114l-3.724 3.282s1.424 5.76 1.831 6.725a11.9 11.9 0 0 0-1.363 5.476v.107c0 3.91 1.93 7.75 5.433 10.06 2.734 1.884 6.689 2 6.689 2 3.902 0 7.733-1.93 10.042-5.398.557-.84.983-1.725 1.292-2.61 2.805-1.141 4.53-2.734 5.423-4.044 2.08.478 8.132.664 8.38.664 8.458-.062 16.474-2.486 22.34-7.485 4.716-4.22 9.865-11.44 10.033-21.11 0-1.726.522-10.822-8.21-18.041a2274 2274 0 0 0 26.57-39.258c18.128-27.472 32.957-51.343 44.238-71.276 11.803-20.262 48.733-75.924 48.654-152.138-.036-22.208-7.989-36.47-7.989-36.47M297.46 398.95c-.01.008-.01.017-.01.026l.027-.053c0-.018.009-.027.009-.035-.009.017-.018.044-.027.062"/><path fill="#a71930" d="M358.182 245.167c-20.598 14.572-52.848 19.023-52.848 19.023-.363 1.398-2.495 2.866-2.495 2.866s3.3 1.221 11.404 7.317c8.096 6.096 5.902 5.796 8.485 7.539 2.584 1.734 4.053 1.247 4.053 1.247.778 1.566.876 3.893.876 3.893 1.079 1.018 6.361 6.06 1.45 11.281-4.919 5.22-10.599.372-10.599.372-2.008.424-3.964-.24-3.964-.24s-10.51 6.619-20.95-.592c-8.495-5.857-7.982-12.803-7.486-15.2-2.867 1.645-5.946 2.928-9.104 3.92-8.521 2.671-19.395 3.777-30.198.185-7.096-2.389-12.97-6.53-17.607-11.122-4.645-4.6-8.078-9.68-10.316-14.253a46 46 0 0 1-.938-2.062c-.744 1.77-4.3 8.486-15.316 8.007-12.679-.548-17.076-12.165-17.076-12.165s-1.955-.655-3.3-2.195c0 0-7.45.443-8.229-6.688-.77-7.132 6.495-7.963 7.972-8.123 0 0 1.469-1.805 3.035-2.583 0 0 .885 1.283 3.99 1.45 3.106.169 1.177-.92 11.317-.893 10.14.018 13.501 1.044 13.501 1.044s-.814-2.46-.256-3.795c0 0-23.03-23.005-30.667-47.053-7.635-24.048-5.3-32.966 3.973-58.324 0 0 6.875 43.203 27.977 70.348 12.041 15.493 25.587 27.57 35.01 35.09.212 0 .434.01.646.01-2.008-2.24-3.54-4.867-4.3-7.875-1.885-7.432-4.972-14.342-6.388-19.846-1.416-5.512 1.734-16.527 1.734-16.527-4.23-6.778-2.168-17.935-2.168-17.935s2.292-1.088 4.035-3.202c1.734-2.124 1.132-8.388 2.548-17.607 1.416-9.22 7.415-18.758 20.704-24.181 13.218-5.397 33.073 1.68 33.25 1.743.177.053 20.287 6.379 27.578 18.66 7.326 12.342 6.353 23.579 1.92 31.78-4.432 8.211-8.697 12.839-8.582 15.581.106 2.734 1.283 4.982 1.283 4.982s-5.079 10.148-12.555 13.015c0 0-4.132 10.679-8.591 14.218-4.442 3.54-11.078 7.184-17.068 11.98-2.362 1.893-5.078 3.061-7.972 3.654.195.142.38.283.576.425 12.041-.319 30.055-1.779 48.91-6.848 33.205-8.937 64.748-39.249 64.748-39.249-7.892 25.818-11.414 34.347-32.002 48.928m31.586-102.988c-42.487-.256-88.504-24.163-129.328-33.276-86.053-19.2-127.752 25.73-127.77 25.747.009-.009 13.944-5.079 20.97-.513 7.635 4.963.902 17.766-1.558 20.323-7.06 7.352-17.209 12.785-28.419 12.785 0 0 11.865 2.849 15.705 6.38 0 0-11.007 1.441-17.005 3.52-5.99 2.089-17.722 5.477-20.324 5.477 0 0 30.905 14.13 11.724 44.31 0 0 13.413-2.053 24.587 3.309 0 0-61.226-9.883-81.938 57.696 7.803-6.432 32.32-23.73 70.49-23.915 46.078-.204 65.844 10.396 84.15 21.482 27.906 16.917 49.008 21.925 65.04 24.915 46.071 8.6 92.335-6.892 112.384-16.236 58.191-89.158 64.89-139.52 65.88-175.477-18.801 18.926-50.308 23.562-64.588 23.473"/><path fill="#fff" d="M297.237 390.711a.1.1 0 0 1-.018.053c-1.053 2.637-2.061 7.166-1.646 10.468.088.716.23 1.372.399 2.008v.01c-2.487 11.422-7.3 11.608-8.574 11.44a2 2 0 0 1-.319-.063c4.75-4.21 4.6-11.838 9.45-22.438.22-.487.47-.982.708-1.478m10.98-18.97c-.074.611-.294 3.927.823 7.22-.009.008-6.142 8.026-11.59 20.023.086-.226.04-.116.007-.032l-.01.023c-.881-3.688-.077-8.44-.06-8.573.124-.248 3.424-6.618 5.106-9.47 1.752-2.971 3.592-5.89 5.46-8.793zm55.644-60.239c-4.044 6.131-35.88 51.673-38.073 54.629a2098 2098 0 0 1-5.84-4.99c8.115-11.273 31.056-45.516 31.516-46.215 4.07-.99 8.098-2.07 12.052-3.309.115-.035.231-.07.345-.115m-52.719-33.167s1.782 1.43 1.93 1.542c.679.513 2.131 1.857 2.8 2.514.551.544 1.103 1.088 1.648 1.639.4.406 2.059 1.97 2.62 2.389.426.316.858.596 1.305.815a6.2 6.2 0 0 0 1.284.468l-.041.03c-.923.692-2.008 1.146-3.175 1.146-.4 0-.835-.059-1.224-.153a7 7 0 0 1-1.563-.587 9.6 9.6 0 0 1-1.469-.931c-.003-.005-.01-.02-.014-.023.052-.24.094-.495.11-.782.064-1.039-.151-2.232-.54-3.193-.648-1.7-3.606-4.82-3.67-4.874m-10.703-6.654c.147.083.287.156.439.242.72.405 1.443.806 2.158 1.217q2.263 1.303 4.46 2.713a72 72 0 0 1 3.092 2.085l.385.285c.987 1.098 1.993 2.51 2.46 3.82.549 1.51.587 2.906.39 3.929-3.207-3.086-9.95-8.043-11.849-9.026.185-2.266-.752-4.128-1.535-5.265m-53.861-26.441q1.534.198 3.002.446a40 40 0 0 0-1.594 2.355q1.628.296 3.295.672.68-1.245 1.411-2.434 1.401.302 2.756.648a86 86 0 0 0-1.218 2.513q1.551.413 3.122.903.494-1.316.99-2.592 1.316.409 2.612.875-.374 1.316-.774 2.664 1.547.552 3.035 1.152.295-1.375.54-2.725c.866.359 1.725.74 2.593 1.145a57 57 0 0 1-.339 2.766q1.553.695 3.03 1.428.118-1.399.143-2.79 1.323.687 2.666 1.454.063 1.404.005 2.801.811.444 1.594.893.006.219.01.439a37 37 0 0 1-.03 2.48q-.015.36-.035.72-.939-.477-1.905-.947a26 26 0 0 1-1.07 4.259 72 72 0 0 0-2.905-1.594c.431-1.337.77-2.69 1.027-4.051q-1.573-.714-3.213-1.4a47 47 0 0 1-1.039 3.871 75 75 0 0 0-3.036-1.326q.596-1.878 1.087-3.745a114 114 0 0 0-3.262-1.201 243 243 0 0 1-1.171 3.655 75 75 0 0 0-3.133-1.051q.625-1.835 1.268-3.62a113 113 0 0 0-3.327-1.003 77 77 0 0 0-1.39 3.635 74 74 0 0 0-3.218-.777 47 47 0 0 1 1.496-3.694q-1.726-.437-3.414-.81a33 33 0 0 0-1.61 3.823 70 70 0 0 0-3.281-.484 26 26 0 0 1 1.696-3.999 126 126 0 0 0-2.103-.383 39 39 0 0 1 1.952-2.69l.18-.228q.903.105 1.823.238a33 33 0 0 1 1.734-2.291m133.395-33.481c-.165.386-6.725 15.453-34.01 27.29a119 119 0 0 1-3.747 1.561c-5.547 2.087-17.226 6.034-32.672 8.822-6.243 1.128-12.56 1.897-18.88 2.427-.507.042-4.17.311-4.17.311a55 55 0 0 0-3.788-4.351c8.374-.37 16.972-1.201 25.411-2.717 34.819-6.258 56.202-20.82 66.455-28.916.937-.741 1.762-1.413 2.516-2.034 1.759-1.425 2.853-2.328 2.885-2.393m-180.362 29.46c.31-.003.93.01.883.015-1.622.09-4.19.685-5.825 1.667q-.013.007-.028.019c-.935.545-1.933 1.46-2.441 2.422-.034.063-.22.413-.27.47-5.323 0-6.275-4.03-6.295-4.103.44.188.887.317 1.347.404l.366.059c.37.05.749.071 1.139.073 1.635.015 3.332-.294 5.1-.54 1.995-.279 4.009-.477 6.024-.487m1.127.013q1.045.02 2.09.07 1.647.08 3.293.23c2.206.197 4.775.49 6.964.836-1.314.437-3.125 1.297-4.346 3.226l-.047.05c-2.116-.365-10.484-.474-14.9.048.458-.933 1.33-2.024 2.677-2.899 1.162-.763 2.822-1.282 4.269-1.561m-14.949-94.64c1.905 8.017 7.565 37.862 37.194 69.959 5.862 6.35 12.273 12.239 18.78 17.62a55 55 0 0 0-5.67 1.222c-4.553-4.013-15.084-14.388-15.634-14.928l-.022-.022c-8.815-8.874-15.396-17.401-20.347-25.329-1.032-1.688-1.833-3.079-2.473-4.119l-.98-1.763c-13.667-25.03-10.848-42.64-10.848-42.64m59.405 54.356c1.385-1.16 4.505-.62 4.505-.62s1.4 1.472 1.73 2.572c.321 1.108-.01 7.144 2.374 11.297v-.098s.117-.439.624-1.193c.51-.754 1.502-1.823 2.096-1.401s.515 1.608.501 2.879c-.01 1.27-.439 2.629-.76 3.013 0 0 .495 1.014 1.84 1.655 0 0-.056-.484.042-1.174.212-1.218.825-2.224 1.217-3.331.12-.388.498-.787 1.062-.484.01 0 1.124.58 2.11 1.073.115.083.8.606.434 1.59-.017.036-.02.057-.031.084-.014.045-.034.083-.049.128-.37.928-.684 1.777-1.157 2.756 0 0-.242.905-.667.943 0 0 .829.544 1.202.701.571.242 1.282.548 1.632.635 0 0-.379-.586-.283-1.423.227-1.193.58-2.834.881-4.208.104-.323.394-.869 1.057-.66.747.308 1.507.6 2.268.878.639.268.633.899.608 1.11-.349 1.518-.74 3.336-1.155 4.788-.094.222-.227.532-.338.646 0 0 .684.48 1.144.602.456.12 1.324.295 1.324.295s-.166-.587.044-1.213q.005-.017.004-.038l1.023-2.921c.083-.25.325-.804.463-1.163.074-.181.37-.738 1.047-.594q1.339.402 2.691.74c.667.197.285 1.22.285 1.22s-.967 2.376-1.592 3.907c-.008-.003-.218.536-.564.819 0 0 .621.275 1.087.368.982.194 1.566.175 1.812.192 0 0-.302-.733.053-1.609.022-.036.031-.08.046-.12.299-.694.61-1.386.897-2.082.084-.196.158-.393.236-.593.1-.3.578-.792 1.363-.652.027.001.044-.002.068.001q.94.176 1.88.32c.007.007 1.129.237.72 1.288a65 65 0 0 1-1.843 3.793q1.052.084 2.114.114s-.089-.063.201-.848 1.14-2.458 1.226-2.707c.085-.245.41-1.217.817-1.265.412-.044 2.013 1.24 1.597 3.714 4.401-1.88 7.763-6.882 8.687-7.563.809-.596 2.424-.92 2.83-.994.68.392 2.653 1.628 2.988 3.086 0 0-3.316 3.051-7.399 4.85-4.089 1.8-10.272 5.698-12.709 7.322-.923.614-2.177 1.144-3.763 1.436-.989-1.764-4.429-3.941-8.838-5.422-4.609-1.549-8.84-1.848-10.567-.889-1.258-1.289-2.026-2.576-2.42-3.711-.959-2.764-3.546-9.607-5.716-13.505-2.174-3.9-2.98-8.334-2.98-8.334m13.353-50.744c.088-4.592 4.946-23.49 30.135-19.2 4.645.965 8.37 2.089 9.344 2.398.097.036.185.062.283.098.477.15 1.132.362 1.92.654.23.089.469.177.716.275.328.124.673.256 1.035.407q.717.291 1.513.637c.522.239 1.071.486 1.638.76a47 47 0 0 1 3.857 2.089c.133.07.265.15.39.23.043.017.079.044.114.07 10.255 6.238 13.068 13.856 13.068 20.156 0 5.538-2.176 10.068-3.37 11.74-1.682 2.336-3.195 3.938-3.973 5.115-.93-1.664-1.646-3.433-1.92-5.203v.006l.001.021c.035.522.634 8.558 4.725 12.684l.21.207s-2.38 5.317-2.875 8.547c-.486 3.238.77 6.644.77 6.644s-.319.514-.779 1.221c-2.511 2.964-6.91 5.53-9.272 5.097-2.68-.496-9.14-2.69-12.882-1.92-3.07.637-4.92 2.37-5.937 4.123 0 0 .009-.01.018-.01a4.4 4.4 0 0 0-.708 1.116s-.797 1.389-1.018 3.247c-.547-.239-1.017-.425-1.017-.425.009.098.009.23-.018.372-.035.274-.16.716-.176.778a.6.6 0 0 1-.035.195c-.063.248-.134.496-.196.743a57 57 0 0 1-.752 2.522.2.2 0 0 0-.035.062c-.284.84-1.133.566-1.133.566a1 1 0 0 1-.096-.035c-.62-.31-1.302-.637-2.01-.974 0 0-.796-.415-.672-1.238-.009-.018 0-.036.009-.062.009-.036 0-.062.018-.089.026-.07.044-.159.07-.22.221-.797.69-2.505.752-2.903.08-.469.39-1.327.584-1.663-.133-.133-.469-.496-.76-.637-.248-.124-.514-.177-.877-.15-.132.114-.354.46-.362.645-.01.106-.291.991-.602 1.964-.318.982-.681 2.062-.84 2.548-.177.531-.558.646-.868.646-.192 0-.355-.044-.424-.067l-.036-.012c-.618-.248-1.46-.549-2.123-.797-.044-.008-.08-.035-.124-.044-.796-.3-.743-.982-.69-1.256.345-1.027.787-2.327 1.123-3.345.071-.239.16-.477.23-.725 0-.009.01-.018.018-.036.027-.106.328-.867.788-1.097-.301-.23-.903-.469-1.353-.628-.54-.177-1.505-.345-1.558-.354.159.345.195.947.115 1.248-.115.398-1.177 4.105-1.221 4.247-.053.141-.24.584-.531.69-.283.106-1.08-.15-1.08-.15l-.132-.027c-.673-.204-1.628-.354-2.264-.531 0 0-1.045-.3-.718-1.256 0 0 .681-2.495 1.018-3.681a.5.5 0 0 1 .017-.106c.027-.089.177-.584.23-1.336s-.45-.93-.822-.93c-.354 0-.744.638-.831 1.01-.099.398-.32 1.061-.32 1.061l-.026.062a2 2 0 0 0-.071.177 84 84 0 0 0-.973 2.725c-.308.816-1.156.753-1.331.73l-.032-.004a86 86 0 0 0-2.176-.434c-.01 0-.098-.026-.098-.035 0 0-.85-.292-.566-1.133 0-.026 0-.053.018-.08.301-.875.557-1.583.911-2.46.097-.23.451-1.07.655-1.397.212-.327.495-.504.495-.504.01-.195-.283-.558-.814-.744a4 4 0 0 0-.212-.053c.31-.77.699-1.831.885-2.725.584-2.167.513-5.22-2-8.095-2.521-2.876-9.007-5.017-11.431-6.238-2.433-1.221-4.619-7.087-4.327-11.14 0 0 3.053-1.964 4.61-4.84 1.575-2.866 2.867-8.537 2.867-8.537 5.883-.664 11.387-6.928 11.724-7.317-1.461 1.407-3.372 2.46-5.354 3.273.106-1.344-.115-3.61-.053-6.963"/><path fill="#b1babf" d="M298.74 355.956c.161-.859 1.267-.7 1.267-.7 6.636 1.328 11.485 7.902 12.554 9.83.992 1.771 11.468 9.955 15.52 13.538 1.895 1.38 10.096 7.672 11.564 14.122 1.744 7.698-2.919 14.988-6.857 18.422-3.946 3.442-10.653 5.635-17.66 5.504-6.247-.125-10.636-1.133-14.607-3.292a.5.5 0 0 0-.037.133c-.31.264-.938 1.707-5.53 2.389-3.08.504-4.866-.115-5.052-.177 5.415 5.477 10.316 2.026 10.316 2.026.232.956.566 1.637.566 1.637s-1.627 2.39-6.582 1.567a8.5 8.5 0 0 1-1.619-.452c.097.054.185.089.283.15 1.903 1.248 2.415 3.805 1.168 5.698a4.13 4.13 0 0 1-5.715 1.169 4.12 4.12 0 0 1-1.16-5.707 4.08 4.08 0 0 1 4.592-1.663c-3.716-1.788-4.672-5.523-4.672-5.523s.115.035.319.063c1.274.168 6.087-.018 8.574-11.44.07.291 1.699 6.882 6.15 5.812-.045.098-.691 1.548-.7 1.567 1.946 1.212 6.406 3.326 13.997 3.424 10.663.141 16.493-6.875 18.096-12.095 1.256-4.062-.69-8.575-4.708-12.53 1.177-1.362 1.894-3.264 1.106-5.884.363 1.213-1.911 3.372-4.31 3.16a3.5 3.5 0 0 1-.653-.116c-3.62-1.01-7.743-5.415-11.237-8.025-3.478-2.61-4.495-6.654-4.424-9.52.051-2.868-.921-6.266-3.655-8.84-2.734-2.575-5.184-2.823-5.964-3.026-.788-.213-1.01-.7-.93-1.221m22.225 37.71c1.3.646 3.168 1.912 4.043 3.743.23.487.338.956.338 1.477.133 2.142-2.372 5.274-4.593 6.098-1.61.663-3.744.99-5.805.98-.655 0-1.3-.025-1.928-.087.584-.983 1.292-2.176 2.078-3.46 1.77-2.893 3.966-6.264 5.867-8.75m-11.925-14.705c.646 1.575 1.672 3.167 3.291 4.654a103 103 0 0 0 3.673 3.248c-4.902 6.335-11.848 18.182-11.848 18.182-2.972.178-4.46-.805-6.14-4.389a9 9 0 0 1-.566-1.672c5.448-11.997 11.581-20.015 11.59-20.023m69.952-72.971c-5.769 9.122-37.242 56.54-44.685 67.308-.05-.044-.132-.097-.176-.133-1.089-.99-2.495-2.186-4.052-3.486 2.539-3.62 31.633-46.878 40.162-60.283a162 162 0 0 0 8.751-3.406m-78.845-44.878s.517-.383.826.007c.181.241.202.553-.14.868-.335.318-1.509 1.101-2.203 3.14-.697 2.053-.265 4.037.537 5.475.745 1.336 1.062 2.945.805 4.457a6 6 0 0 1-.481 1.568c-.57 1.216-1.015 2.486-1.53 3.726-.564 1.35-1.19 2.609-1.994 3.374-.894.849-2.336.587-3.22-.127-.036-.03-.08-.049-.115-.08.372 1.597 1.373 2.236 2.41 2.466-.486 3.186.645 5.505 4.481 7.387 3.925 1.923 10.734 1.916 15.818-2.937-.51-.572-1.119-.991-1.712-1.467q-.012-.012-.025-.018c.395-.114.905-.331 1.23-.735.18-.226.31-.598.402-1.025l.021.016q.28.211.552.394c.295.198.603.373.917.537a7 7 0 0 0 1.563.587 5.4 5.4 0 0 0 1.224.153c1.167 0 2.252-.454 3.175-1.145l.032-.022c.01.004.087.566.092.69.038.726-.041 1.881-.723 3.009a2.32 2.32 0 0 1 2.517-.196 2.324 2.324 0 0 1 .937 3.154 2.326 2.326 0 0 1-3.156.938 2.31 2.31 0 0 1-.972-3.03c-.182.187-.355.378-.583.556-1.34 1.028-2.385 1.187-3.036 1.147-.463-.03-.731-.157-.731-.157s.027-.294-.104-.783c-.017-.066-.028-.124-.052-.199.16.015.455.019.823-.032 1.133-.161 2.986-.88 3.875-3.797 0 0-.218.283-.592.65-.815.805-2.495 2.01-4.807 1.838-1.11.951-7.978 6.41-16.208 3.498-8.986-3.183-9.055-8.73-8.83-10.543.146-1.183.779-3.132.81-3.227.73-2.272 4.438-10.476 4.456-11.746.022-1.271.702-5.909 3.711-8.37m1.827 15.834c1.898.983 8.642 5.94 11.85 9.026-.102.514-.243.96-.447 1.22-.318.4-.781.62-1.178.753-2.821-1.932-7.107-4.465-11.625-6.499.278-.698.6-1.565.98-2.638.242-.69.42-1.862.42-1.862m-82.946-43.323c.484-.127.669.492.669.492.912 3.777-1.342 7.886-2.089 8.913-.75 1.022-2.747 9.804-3.535 12.06 0 0-.93 2.316-1.3 3.063-.816 1.632-4.317 5.963-13.403 3.076-8.323-2.64-10.55-11.128-10.86-12.548-2.838-1.827-2.759-5.258-2.759-5.258-1.396 3.801.9 5.542 1.438 5.89-.062-.04-.539.458-.595.523-.008.01-.115.162-.123.16 0 0-.816-.154-1.566-1.214-.313-.442-.617-1.024-.84-1.843a5.5 5.5 0 0 1-.164-.856q-.003.047-.009.093a2.356 2.356 0 0 1-2.679 1.974 2.36 2.36 0 0 1-1.976-2.682 2.354 2.354 0 0 1 4.638-.085c.071-2.315 1.76-3.672 1.76-3.672.02.073.972 4.103 6.295 4.103-.185.399-.306.772-.3 1.06.018.52.29.999.544 1.329h-.262c-.588 0-2.022.014-2.024.137 1.127 6.941 6.556 11.052 10.843 11.883 4.189.814 6.491-.35 8.02-3.172.97.442 2.162.52 3.425-.526-1.848.079-2.65-1.041-2.79-1.85-.367-2.127.958-5.348 1.472-7.793.523-2.446 2.38-3.944 3.89-4.605 1.513-.662 3.047-1.987 3.732-4.041.682-2.046.214-3.379.138-3.836-.08-.459.12-.694.41-.775m160.945-21.864c.004-.002-.162.482-.162.482-2.032 5.86-5.796 11.311-9.916 15.889-2.995 3.328-6.26 6.36-9.744 9.171-5.343 4.312-11.42 7.808-17.614 10.734-6.155 2.905-12.607 5.213-19.161 7.03-10.253 2.844-21.1 4.334-31.82 4.936a48 48 0 0 0-2.896-4.848c34.453-2.466 57.13-15.966 57.13-15.966l.173-.138c27.285-11.837 33.845-26.904 34.01-27.29m-186.182 33.933c4.417-.522 12.785-.413 14.9-.047l.048-.05a7.6 7.6 0 0 0-.841 1.786 71 71 0 0 0-.814 2.693c-5.09-1.397-13.19-1.829-13.19-1.829-.231-.34-.47-.799-.483-1.308-.007-.332.15-.774.38-1.245m-8.002-99.1s-2.819 17.61 10.848 42.64l-.042-.075-.036-.065s9.74 24.092 35.285 46.688l.779.684a52 52 0 0 0-5.229 2.125c-.257.122-2.833-2.444-3.149-2.725a170 170 0 0 1-7.515-7.062c-5.664-5.665-10.888-11.784-15.467-18.36-3.719-5.338-7.058-10.96-9.758-16.881-2.64-5.786-4.791-11.781-6.137-18.004-1.267-5.857-1.829-11.88-1.512-17.868.187-3.54.618-7.22 1.763-10.591zm61.496 43.424s2.402 1.166 3.15 1.603l-.012.078c-.09.672-.724 5.464-.757 7.77-.003.354.003.65.033.861 0 0-3.12-.54-4.505.62 0 0 .805 4.434 2.979 8.334 2.17 3.898 4.757 10.74 5.716 13.505.394 1.135 1.162 2.422 2.42 3.711 1.727-.959 5.958-.66 10.567.889 4.409 1.48 7.849 3.658 8.838 5.422 1.586-.292 2.84-.822 3.763-1.436 2.437-1.624 8.62-5.522 12.709-7.322 4.083-1.799 7.4-4.85 7.4-4.85-.336-1.458-2.309-2.694-2.989-3.086l.095-.015c1.134-1.147 4.248-6.64 4.633-7.32l.04-.071c.863.105 3.474.62 3.474.62s-2.72 6.325-4.33 9.049c-1.607 2.713-2.914 3.636-4.48 4.742-1.564 1.103-8.468 5.665-10.296 6.953-1.821 1.289-6.67 5.638-10.904 6.39-2.1.371-3.92.416-5.649.223-1.728-.195-3.366-.628-5.094-1.206a.1.1 0 0 1-.031-.013q-.024-.004-.035-.008c-3.457-1.163-6.26-2.572-9.163-5.7-2.56-2.756-3.829-7.997-4.56-10.69a23 23 0 0 0-.285-.985c-.677-2.127-3.429-9.93-4.013-11.753-.587-1.826-1.071-3.35-.712-6.486.335-2.945 1.798-9.006 1.98-9.753q.016-.076.018-.076m39.286 18.153s1.566-1.106 4.37-.972c0 0-.017.017-.017.026l.017-.01c-.079.213-.715 1.956-.885 3.487-.096.946-.556 3.336-.556 3.354-.823 2.867-3.583 4.45-3.832 4.291-.292-.186-.672-.885.566-4.85 0-.193.638-.423.78-.414.255-.045.512-.08.768-.124 0 0-.07-.15-.336-.531-.115-.187-.415-.302-.6-.408-.214-.115-1.292-.593-1.292-.602a9.5 9.5 0 0 1 1.001-3.218Zm-41.817-33.579c-.292 4.053 1.894 9.92 4.327 11.14 2.424 1.22 8.91 3.362 11.433 6.238 2.513 2.876 2.583 5.93 2 8.097-.187.893-.577 1.955-.885 2.725a3.4 3.4 0 0 0-.522-.089c-.514-.062-1.328-.116-1.497.522-.008.026-.017.045-.017.045.08.273.141.61.106.796-.045.203-.115.39-.15.479-1.39 3.901-2.124 4.237-2.469 4.21-.292-.017-1.54-2.954-.469-5.734.008-.017.017-.034.017-.052.548-1.24 1.07-2.142 1.558-2.956.858-1.416 1.407-3.335 1.407-3.335l.017.035v-.027c.717.488 1.327 1.08 1.894 1.725.017.019.025.028.025.037.258.424.655.75.885 1.203a.9.9 0 0 1 .107.353c.194-.743.168-1.645-.116-2.37-.016-.027-.016-.054-.025-.08-1.052-2.876-3.778-4.566-6.31-6-1.69-.955-3.45-1.788-5.229-2.565-5.21-2.292-5.29-3.814-5.99-6.22a9 9 0 0 1-.203-1.045c-.097-.77-.124-1.69-.124-2.602 0-2.273.23-4.53.23-4.53m70.591 25.174a.6.6 0 0 1-.062.096c-1.044 1.86-2.45 3.85-4.168 5.142-2 1.504-2.98 2.663-8.528 1.353-2.177-.522-4.381-.99-6.6-1.265-2.842-.362-6.602-.46-8.673 1.928-.01.019-.018.019-.035.036-.019 0-.026.018-.035.027 1.026-1.76 2.875-3.504 5.954-4.14 3.744-.771 10.202 1.423 12.883 1.92 2.363.433 6.752-2.134 9.264-5.097m-34.257-14.309c2 .801 3.112 2.81 2.51 4.61-.38 1.151-.292 2.071-.205 3.292l.01.036v.018c.044.981.265 1.504.503 2.176.241.629.533 1.629.161 2.654l-.47 1.398c-.627 1.886-2.893 2.815-5.05 2.098 0-.01 1.449-.38 1.92-1.77.007-.017.016-.036.016-.053.894-.133 1.673-.663 1.955-1.513l.496-1.46c.495-1.495-.61-2.168-.672-4.583-.089-1.248-.177-2.461.31-3.902.39-1.17-.264-2.464-1.484-3m-5.295 1.983c.612-1.787 2.708-2.734 4.815-2.141-1.302-.328-2.62.319-3.01 1.486-.486 1.451-1.309 2.354-2.123 3.292-1.513 1.893-2.805 1.76-3.3 3.257l-.495 1.459c-.284.841.016 1.726.637 2.372a.2.2 0 0 0-.019.062c-.468 1.398.469 2.565.469 2.565-2.15-.725-3.389-2.83-2.761-4.707l.47-1.398c.327-1.045 1.149-1.673 1.734-2.026.601-.39 1.089-.673 1.717-1.425l.026-.036c.824-.92 1.46-1.61 1.84-2.76m37.854-4.477.079.008s-1.106 7.469-2.929 10.397c-1.823 2.938-3.565 5.646-8.096 5.398 0 0 2.627-.76 1.788-2.823-.062-.15-.106-.3-.142-.46 1.212-.68 2.3-1.194 3.292-2.229 1.318-1.372 2.361-3.063 3.113-4.796q.493-1.156.825-2.363s.584-2.681 1.715-3.079c.125-.017.24-.036.355-.053m-35.509-7.3c.965 2.097 8.565 4.645 10.645 3.574-.01.045-.203 2.779-.195 4.407.008 1.637.567 7.963 3.337 9.619.009 0-.683.822.202 3.397-.213-.07-3.68-1.353-4.928-4.159-1.291-2.885-.035-10.636-4.671-12.255-4.674-1.512-8.344 5.433-11.124 6.955-2.768 1.521-6.45.344-6.45.344 2.136-1.422 2.22-2.451 2.221-2.578v-.013c3.202.354 7.452-4.354 8.45-5.663.993-1.3 2.513-3.628 2.513-3.628m-22.147-12.07.054.036.017.009c.08.08.169.168.248.257.664 1-.486 3.486-.486 3.486a18 18 0 0 0-.718 2.221c-.664 2.575-.911 5.769.15 8.335.045.088.718 1.256.683 1.292a2 2 0 0 1-.196.15 3 3 0 0 1-.211.142c-1.842 1.079-.399 3.15-.284 3.309-3.752-2.522-3.522-5.734-3.194-9.175.318-3.434 3.937-10.061 3.937-10.061m49.14-27.357 1.026.433c26.375 12.688 20.562 32.728 19.049 36.559-1.372 3.442-4.097 6.84-5.29 8.777-1.4-1.53-3.283-3.813-4.7-6.37.78-1.177 2.292-2.779 3.973-5.114 1.195-1.673 3.371-6.203 3.371-11.741 0-6.3-2.813-13.918-13.068-20.155a.5.5 0 0 0-.115-.071 6 6 0 0 0-.39-.23 47 47 0 0 0-3.856-2.088m-40.91 22.713c4.406-1.097 11.564 5.574 15.775 9.087 3.584 3.168 5.15 3.469 5.47 3.557.326.124 1.75.83 6.502.46 5.487-.257 15.22-1.265 18.077 2.274 0 .097-6.919-.681-11.583.07-4.637.983-11.218 1.612-14.139.594-2.937-.948-7.813-5.424-10.91-8.999-3.246-3.39-9.193-6.928-9.193-7.043m14.977-28.951c2.114 0 4.38.15 6.812.495.876.15 1.726.319 2.548.487l.124.027c-25.19-4.292-30.047 14.607-30.135 19.2-.062 3.353.16 5.618.053 6.962-3.663 1.531-7.583 2.088-7.583 2.088.213-2.123.204-6.812 1.115-10.51.859-3.478 6.663-18.66 27.066-18.749"/><path fill="#0a0b09" d="M266.687 126.298c13.218-5.397 33.073 1.68 33.25 1.743.177.053 20.287 6.379 27.578 18.66 7.326 12.342 6.353 23.579 1.92 31.78-4.432 8.211-8.697 12.839-8.582 15.581.106 2.734 1.283 4.982 1.283 4.982s-5.079 10.148-12.555 13.015c0 0-4.132 10.679-8.591 14.218-4.442 3.54-11.078 7.184-17.068 11.98-2.362 1.893-5.078 3.061-7.972 3.654.195.142.38.283.576.425 12.041-.319 30.055-1.779 48.91-6.848 33.205-8.937 64.748-39.249 64.748-39.249-7.892 25.818-11.414 34.347-32.002 48.928-20.598 14.572-52.848 19.023-52.848 19.023-.363 1.398-2.495 2.866-2.495 2.866s3.3 1.221 11.404 7.317c8.096 6.096 5.902 5.796 8.485 7.539 2.427 1.629 3.87 1.298 4.037 1.252l.016-.005c.778 1.566.876 3.893.876 3.893 1.079 1.018 6.361 6.06 1.45 11.281-4.919 5.22-10.599.372-10.599.372-2.008.424-3.964-.24-3.964-.24s-10.51 6.619-20.95-.592c-8.495-5.857-7.982-12.803-7.486-15.2-2.867 1.645-5.946 2.928-9.104 3.92-8.521 2.671-19.395 3.777-30.198.185-7.096-2.389-12.97-6.53-17.607-11.122-4.645-4.6-8.078-9.68-10.316-14.253a46 46 0 0 1-.938-2.062c-.744 1.77-4.3 8.486-15.316 8.007-12.679-.548-17.076-12.165-17.076-12.165s-1.955-.655-3.3-2.195c0 0-7.45.443-8.229-6.688-.77-7.132 6.495-7.963 7.972-8.123 0 0 1.469-1.805 3.035-2.583 0 0 .885 1.283 3.99 1.45 3.106.169 1.177-.92 11.317-.893 10.14.018 13.501 1.044 13.501 1.044s-.814-2.46-.256-3.795c0 0-23.03-23.005-30.667-47.053-7.635-24.048-5.3-32.966 3.973-58.324 0 0 6.875 43.203 27.977 70.348 12.041 15.493 25.587 27.57 35.01 35.09.212 0 .434.01.646.01-2.008-2.24-3.54-4.867-4.3-7.875-1.885-7.432-4.972-14.342-6.388-19.846-1.416-5.512 1.734-16.527 1.734-16.527-4.23-6.778-2.168-17.935-2.168-17.935s2.292-1.088 4.035-3.202c1.734-2.124 1.132-8.388 2.548-17.607 1.416-9.22 7.415-18.758 20.704-24.181m34.285 134.821c-.31-.389-.823-.008-.823-.008-3.008 2.46-3.69 7.096-3.716 8.37-.018 1.274-3.724 9.476-4.45 11.75-.036.089-.664 2.043-.814 3.22-.222 1.814-.15 7.361 8.83 10.546 8.229 2.912 15.103-2.548 16.209-3.494 2.309.168 3.99-1.036 4.804-1.84a6 6 0 0 0 .584-.647c-.876 2.911-2.734 3.628-3.867 3.787a3.5 3.5 0 0 1-.822.036c.026.08.035.132.053.204.132.486.106.778.106.778s.265.132.725.159c.655.035 1.7-.124 3.045-1.15.221-.177.397-.363.574-.549a2.31 2.31 0 0 0 .974 3.026 2.33 2.33 0 0 0 3.158-.937 2.326 2.326 0 0 0-3.45-2.965c.68-1.123.76-2.282.716-3.007 0-.125-.08-.682-.088-.682l.008-.01a7 7 0 0 1-1.283-.468 8 8 0 0 1-1.3-.823c-.566-.416-2.22-1.982-2.627-2.389-.54-.548-1.098-1.088-1.647-1.637-.663-.654-2.123-2-2.795-2.512l-1.885-1.496c.38.39 3.017 3.23 3.619 4.831.389.956.61 2.15.548 3.185a5 5 0 0 1-.115.788s.01.018.018.018c-.009 0-.018-.01-.027-.01-.088.425-.22.797-.398 1.027-.327.4-.84.62-1.23.734.01 0 .018.01.027.018.593.47 1.203.894 1.708 1.469-5.088 4.848-11.892 4.857-15.82 2.928-3.831-1.874-4.964-4.193-4.477-7.387-1.035-.222-2.035-.867-2.416-2.46.036.026.08.044.116.08.885.716 2.326.973 3.22.123.805-.76 1.433-2.017 2-3.37.513-1.24.955-2.513 1.53-3.725a6.2 6.2 0 0 0 .478-1.567c.257-1.512-.062-3.123-.805-4.459-.805-1.442-1.23-3.424-.54-5.477.7-2.043 1.867-2.822 2.203-3.14.345-.31.328-.629.142-.868m-.531 10.565c.779 1.132 1.716 3 1.53 5.264 0 0-.176 1.168-.414 1.858a89 89 0 0 1-.983 2.637c4.522 2.035 8.803 4.574 11.626 6.503.398-.133.859-.354 1.176-.752.204-.266.346-.708.443-1.221.203-1.027.16-2.425-.39-3.929-.46-1.31-1.468-2.725-2.46-3.821-.122-.098-.256-.187-.38-.284a68 68 0 0 0-3.096-2.088 103 103 0 0 0-4.46-2.707c-.716-.416-1.433-.814-2.159-1.221-.15-.089-.291-.16-.433-.24m-38.09-31.374c-17.536-5.884-36.558 2.813-40.735 8.095a4.4 4.4 0 0 0-.468.673c-.018.026-.027.08-.054.097 0 0-.106.16-.22.487-1.664 4.972 8.413 26.1 27.436 32.489 19.04 6.388 39.62-3.823 41.478-9.361.133-.399.16-.726.16-.726.185-1.31-.107-3.176-.832-5.362-2.831-8.405-12.245-21.517-26.765-26.392m11.106 17.543c6.682 3.917 11.654 8.134 14.19 11.153-3.716-2.74-8.546-5.783-14.22-8.672a37 37 0 0 0 .03-2.481m-54.326-24.248-.107.016c-.283.08-.487.318-.407.778.08.452.549 1.788-.141 3.831-.682 2.062-2.212 3.38-3.725 4.044s-3.371 2.159-3.893 4.61c-.514 2.441-1.84 5.662-1.47 7.785.134.814.939 1.93 2.788 1.858-1.265 1.045-2.45.965-3.424.523-1.53 2.822-3.831 3.981-8.025 3.167-4.282-.823-9.715-4.937-10.839-11.883 0-.117 1.438-.131 2.025-.132h.258c-.248-.328-.522-.814-.54-1.327-.008-.292.116-.664.301-1.062.045-.062.23-.407.266-.469.513-.964 1.504-1.876 2.442-2.424q.013-.016.026-.018c1.637-.982 4.203-1.575 5.83-1.663.045-.01-.574-.027-.884-.018-2.017.009-4.026.203-6.025.487-1.77.247-3.468.548-5.096.54a9.3 9.3 0 0 1-1.513-.133 7 7 0 0 1-1.345-.407s-1.69 1.353-1.761 3.671a2.34 2.34 0 0 0-1.955-1.884 2.35 2.35 0 0 0-2.681 1.973 2.363 2.363 0 0 0 1.982 2.68 2.353 2.353 0 0 0 2.672-1.972c.009-.036.009-.062.009-.098.035.275.088.567.168.859.22.822.522 1.397.84 1.84.743 1.062 1.566 1.22 1.566 1.22.01 0 .115-.15.124-.167.053-.062.496-.522.584-.522-.548-.363-2.814-2.106-1.433-5.884 0 0-.08 3.433 2.76 5.256.31 1.415 2.54 9.909 10.865 12.546 9.087 2.893 12.582-1.443 13.405-3.08.362-.743 1.291-3.06 1.291-3.06.788-2.257 2.787-11.034 3.54-12.06.743-1.026 2.999-5.132 2.088-8.91 0 0-.186-.62-.673-.495Zm160.842-21.847c-.035.07-1.123.973-2.884 2.398a179 179 0 0 1-2.522 2.035c-10.245 8.095-31.63 22.65-66.446 28.914-8.441 1.513-17.041 2.345-25.42 2.716a53 53 0 0 1 3.796 4.353s3.663-.273 4.167-.318c6.317-.531 12.635-1.292 18.881-2.424 15.448-2.787 27.127-6.734 32.666-8.822 1.3-.513 2.54-1.035 3.752-1.566l-.168.142s-22.686 13.502-57.13 15.97a50 50 0 0 1 2.893 4.849c10.714-.602 21.562-2.097 31.816-4.937 6.556-1.823 13.006-4.123 19.164-7.034 6.194-2.92 12.272-6.424 17.616-10.733 3.477-2.813 6.742-5.84 9.742-9.175 4.123-4.574 7.883-10.024 9.918-15.881l.15-.46ZM200.736 241.23c-1.442.283-3.106.796-4.265 1.566-1.354.876-2.22 1.964-2.68 2.893-.23.478-.39.92-.381 1.248.018.513.256.964.487 1.309 0 0 8.095.434 13.191 1.831.195-.725.46-1.619.806-2.698.22-.69.522-1.265.849-1.787 1.221-1.93 3.026-2.787 4.344-3.22-2.194-.355-4.76-.647-6.963-.841a82 82 0 0 0-3.3-.23c-.69-.036-1.39-.054-2.088-.071m23.542 6.632c3.93-.872 10.648-1.283 18.563-.34a36 36 0 0 0-1.493 2.012c-6.46-1.153-12.328-1.63-17.07-1.672m-38.486-101.268-.177.505c-1.141 3.37-1.575 7.051-1.76 10.59-.32 5.99.247 12.016 1.512 17.864 1.345 6.229 3.495 12.219 6.14 18.005 2.7 5.928 6.035 11.546 9.76 16.882 4.574 6.573 9.803 12.696 15.466 18.359a167 167 0 0 0 7.511 7.069c.319.274 2.893 2.84 3.15 2.725a52 52 0 0 1 5.229-2.132c-25.72-22.43-35.745-46.601-36.054-47.353l.07.124c.319.584.637 1.168.982 1.76.637 1.044 1.434 2.433 2.469 4.123 4.955 7.928 11.529 16.457 20.35 25.331.026.027 10.98 10.83 15.651 14.944a55 55 0 0 1 5.672-1.22c-6.503-5.38-12.918-11.273-18.784-17.617-29.622-32.1-35.285-61.943-37.187-69.959m61.492 43.425s-.01.027-.018.07c-.186.753-1.646 6.814-1.982 9.76-.044.39-.07.752-.088 1.097-.142 2.415.283 3.787.805 5.388.584 1.823 3.335 9.627 4.008 11.75.088.266.186.602.292.982.725 2.699 2 7.937 4.556 10.697 2.903 3.123 5.707 4.53 9.167 5.698 0 0 .017 0 .026.009.018 0 .027.009.036.009 1.725.584 3.362 1.008 5.096 1.203 1.725.195 3.548.15 5.646-.221 4.237-.752 9.085-5.096 10.908-6.388s8.733-5.849 10.29-6.955c1.566-1.106 2.876-2.026 4.486-4.742 1.61-2.725 4.326-9.051 4.326-9.051s-2.61-.513-3.477-.62c0 0-.009.027-.035.071-.39.682-3.504 6.176-4.636 7.326 0 0-.036 0-.089.018-.407.07-2.026.39-2.831.99-.93.682-4.291 5.681-8.689 7.566.416-2.478-1.184-3.76-1.601-3.716-.407.044-.725 1.017-.814 1.265s-.938 1.92-1.221 2.707c-.292.788-.203.85-.203.85a55 55 0 0 1-2.115-.115 68 68 0 0 0 1.84-3.796c.368-.953-.51-1.232-.68-1.276l-.028-.007-.009-.009a47 47 0 0 1-1.883-.318h-.063c-.788-.142-1.264.354-1.363.654-.08.195-.158.398-.239.593-.292.69-.601 1.39-.902 2.08a.3.3 0 0 1-.044.123c-.354.876-.053 1.61-.053 1.61-.24-.017-.823 0-1.814-.194-.46-.097-1.08-.372-1.08-.372.346-.283.558-.823.558-.823.628-1.53 1.592-3.901 1.592-3.901s.38-1.027-.283-1.221a58 58 0 0 1-2.69-.735c-.68-.15-.973.407-1.043.593-.142.354-.38.911-.47 1.16-.344.981-.68 1.954-1.017 2.919 0 .018 0 .026-.009.044-.212.62-.044 1.212-.044 1.212s-.867-.177-1.318-.3c-.46-.116-1.15-.602-1.15-.602.115-.106.247-.425.345-.646.407-1.451.805-3.265 1.15-4.787.026-.212.035-.84-.61-1.106a63 63 0 0 1-2.266-.885c-.663-.203-.955.346-1.061.664a185 185 0 0 0-.876 4.212 2.3 2.3 0 0 0 .283 1.415c-.353-.08-1.062-.39-1.628-.628-.38-.16-1.203-.708-1.203-.708.424-.035.663-.938.663-.938.469-.982.788-1.831 1.16-2.76.008-.044.035-.08.043-.124l.036-.088c.363-.983-.319-1.505-.434-1.584-.99-.496-2.106-1.08-2.114-1.08-.567-.3-.938.098-1.062.487-.39 1.106-1 2.115-1.212 3.336-.098.69-.044 1.167-.044 1.167-1.345-.637-1.84-1.654-1.84-1.654.318-.38.751-1.743.76-3.008.009-1.274.089-2.46-.504-2.885-.593-.415-1.584.646-2.097 1.407-.504.752-.62 1.195-.62 1.195v.097c-2.388-4.159-2.052-10.193-2.38-11.299s-1.725-2.574-1.725-2.574a8 8 0 0 1-.035-.859c.035-2.309.672-7.095.76-7.768l.01-.08c-.744-.442-3.15-1.6-3.15-1.6m31.914-60.023c-20.403.088-26.207 15.271-27.066 18.748-.911 3.699-.902 8.388-1.115 10.511 0 0 3.92-.557 7.583-2.088 1.982-.814 3.893-1.866 5.354-3.273-.337.389-5.84 6.653-11.724 7.317 0 0-1.292 5.671-2.867 8.538-1.557 2.875-4.61 4.84-4.61 4.84s-.23 2.256-.23 4.53c0 .911.027 1.831.124 2.6.053.39.124.744.204 1.045.699 2.406.778 3.928 5.99 6.22 1.778.778 3.539 1.61 5.229 2.566 2.53 1.433 5.255 3.123 6.308 5.998.009.027.009.054.027.08.283.726.31 1.628.115 2.371a.9.9 0 0 0-.107-.354c-.229-.45-.628-.778-.884-1.203q0-.012-.027-.035c-.566-.646-1.177-1.239-1.893-1.726v.027l-.018-.035s-.549 1.92-1.407 3.335c-.486.814-1.008 1.717-1.557 2.955a.1.1 0 0 1-.018.053c-1.07 2.779.177 5.716.47 5.734.344.026 1.079-.31 2.468-4.212.035-.088.106-.274.15-.478.036-.185-.026-.522-.106-.796 0 0 .009-.018.018-.044.168-.637.982-.584 1.495-.522.177.018.354.044.522.088q.12.027.212.053c.531.186.824.549.814.744 0 0-.283.177-.495.504-.204.327-.558 1.168-.655 1.398a46 46 0 0 0-.911 2.46c-.018.026-.018.053-.018.08-.25.74.382 1.055.534 1.12l.032.012c0 .009.089.035.098.035a86 86 0 0 1 2.176.434s1.019.185 1.363-.726c.327-.964.61-1.76.973-2.725.018-.053.044-.115.07-.168v-.009l.027-.062s.221-.663.32-1.062c.087-.371.477-1.008.83-1.008.372 0 .876.177.823.929s-.203 1.247-.23 1.336a.5.5 0 0 0-.017.106c-.337 1.186-1.018 3.68-1.018 3.68-.327.956.718 1.257.718 1.257.636.177 1.591.327 2.264.53.044.01.08.019.133.027 0 0 .796.257 1.079.15.292-.105.478-.548.53-.69.045-.14 1.107-3.848 1.222-4.246.08-.301.044-.903-.115-1.248.053.01 1.017.177 1.558.354.45.16 1.052.398 1.353.628-.46.23-.761.991-.788 1.097-.009.018-.017.027-.017.036-.071.248-.16.486-.23.725-.337 1.018-.78 2.318-1.124 3.345-.053.274-.106.955.69 1.256l.124.044c.663.248 1.505.549 2.123.797 0 0 .204.08.46.08.31 0 .691-.116.867-.647.16-.486.523-1.566.841-2.548.31-.973.593-1.858.602-1.964.008-.186.23-.53.362-.646.363-.026.629.027.876.15.292.142.628.505.761.638-.194.336-.504 1.194-.584 1.663-.062.398-.53 2.106-.752 2.902-.026.062-.044.15-.07.221-.018.027-.01.053-.018.089-.01.026-.018.044-.01.062-.123.823.673 1.238.673 1.238.708.337 1.39.664 2.01.974 0 0 .087.035.096.035 0 0 .85.274 1.133-.566a.2.2 0 0 1 .035-.062c.284-.885.505-1.62.752-2.522.062-.247.133-.495.196-.743a.6.6 0 0 0 .035-.195c.017-.062.14-.504.176-.778.027-.142.027-.274.018-.372 0 0 .47.186 1.017.425 0 .009 1.08.487 1.292.602.186.106.487.22.602.415.265.372.336.522.336.522l-.77.124c-.141-.009-.779.221-.779.416-1.238 3.964-.858 4.663-.565 4.849.247.159 3.007-1.416 3.83-4.283 0-.026.46-2.415.559-3.362.167-1.53.804-3.273.884-3.486l-.018.01c0-.01.018-.027.018-.027-2.805-.133-4.371.973-4.371.973.177-.425.433-.788.708-1.115.017-.018.026-.018.035-.035 2.07-2.39 5.83-2.292 8.67-1.93 2.221.275 4.425.744 6.601 1.266 5.556 1.31 6.53.15 8.53-1.354 1.726-1.291 3.131-3.282 4.175-5.14.019-.036.045-.062.062-.098.46-.707.779-1.22.779-1.22s-1.256-3.407-.77-6.645c.496-3.23 2.876-8.547 2.876-8.547-4.424-4.194-4.937-12.918-4.937-12.918.274 1.77.99 3.54 1.92 5.203 1.416 2.557 3.3 4.84 4.699 6.37 1.193-1.938 3.918-5.335 5.29-8.777 1.513-3.831 7.326-23.871-19.05-36.559l-1.025-.433c-.567-.275-1.116-.522-1.638-.761a32 32 0 0 0-1.513-.637c-.362-.15-.707-.283-1.035-.407-.256-.098-.494-.186-.716-.275a40 40 0 0 0-1.92-.654c-.098-.036-.186-.062-.283-.098-.974-.31-4.699-1.433-9.344-2.397l-.124-.027a82 82 0 0 0-2.548-.487 48.4 48.4 0 0 0-6.812-.495m-1.6 56.787c.39-1.167 1.708-1.814 3.01-1.486.08.018.158.035.23.062.086.028.167.063.25.096 1.22.537 1.873 1.832 1.483 3-.486 1.442-.398 2.655-.31 3.903.062 2.415 1.168 3.088.673 4.584l-.496 1.46c-.282.849-1.061 1.379-1.955 1.512-.417.053-.859.053-1.301-.088-1.37-.46-2.14-1.859-1.716-3.106.07-.212-.054-.442-.275-.523a.414.414 0 0 0-.521.249c-.415 1.256-1.876 1.902-3.256 1.442-.443-.15-.797-.416-1.097-.725-.62-.646-.921-1.53-.637-2.372l.495-1.46c.495-1.496 1.787-1.363 3.3-3.256.814-.938 1.637-1.84 2.124-3.292m11.185-7.548s.035.045.053.071a14 14 0 0 0 1.699 1.964 9 9 0 0 0 .53.488c.01.008.027.017.035.034.691.576 1.505 1.106 2.444 1.417 2.856.964 7.024.282 11.492-.532.39-.06.77-.114 1.152-.16 4.008-.458 7.53.427 7.53.427l.008.025-.079-.008c-.116.017-.23.036-.355.053-1.131.398-1.715 3.08-1.715 3.08a19 19 0 0 1-.825 2.362c-.752 1.733-1.795 3.424-3.113 4.796-.991 1.035-2.08 1.548-3.292 2.23l-.01-.01c-.016 0-.698.213-1.06.256-2.745.338-8.513-.547-11.281-2.441-.028-.01-.045-.018-.062-.026-2.78-1.656-3.338-7.982-3.346-9.62-.008-1.627.185-4.361.195-4.406m-32.765-15.643c.203.08 3.415 1.486 6.246 4.185q.425.399.824.823c3.078 3.345 5.99 6.406 8.848 7.362.93.31 1.91.38 2.805.337.009 0 .026 0 .045-.01q.371-.013.715-.053a15.4 15.4 0 0 0 2.637-.575s-1.52 2.328-2.512 3.628c-1 1.309-5.249 6.017-8.45 5.663-.026 0-.054-.018-.08-.018-3.355-.168-8.494-2.938-10.477-4.858-.265-.265-.672-.84-.68-.84a2 2 0 0 1-.196.141c.07-.044.134-.097.196-.15.035-.036-.638-1.204-.683-1.292-1.061-2.566-.814-5.76-.15-8.335.195-.752.426-1.495.718-2.22 0 0 1.15-2.488.486-3.487-.08-.089-.169-.177-.248-.257l-.017-.009c0-.008-.01-.017-.027-.035"/><path fill="#c2242b" d="M287.84 273.91c-7.048 4.443-22.778 8.553-37.928 3.472-14.868-4.993-24.748-17.703-27.912-25.441-.37-.804-.467-2.972 1.705-3.977 0 0-1.372.195-2.608 1.21 0 0-.109.16-.22.491-1.664 4.965 8.411 26.097 27.436 32.484 19.035 6.389 39.622-3.822 41.48-9.356.127-.402.153-.726.153-.726-.432-1.355-1.258-2.199-1.258-2.199 1.058 1.997-.028 3.461-.848 4.043"/><path fill="#dc4405" d="M273.428 260.334q-.016.36-.036.72-.939-.478-1.905-.948a26 26 0 0 1-1.07 4.259 72 72 0 0 0-2.905-1.594c.431-1.337.77-2.69 1.027-4.051q-1.573-.714-3.213-1.4a47 47 0 0 1-1.039 3.871 75 75 0 0 0-3.036-1.326q.596-1.878 1.087-3.745a114 114 0 0 0-3.262-1.201 243 243 0 0 1-1.171 3.655 75 75 0 0 0-3.133-1.051q.625-1.835 1.268-3.62a113 113 0 0 0-3.327-1.003 77 77 0 0 0-1.39 3.635 74 74 0 0 0-3.218-.777 47 47 0 0 1 1.496-3.694q-1.726-.437-3.414-.81a33 33 0 0 0-1.61 3.823 70 70 0 0 0-3.281-.484 26 26 0 0 1 1.696-3.999 126 126 0 0 0-2.103-.383q.226-.34.459-.677c-6.46-1.153-12.328-1.63-17.07-1.672 3.93-.872 10.648-1.283 18.563-.34q.09-.117.18-.229.903.105 1.823.238a33 33 0 0 1 1.734-2.291q1.534.198 3.002.446a40 40 0 0 0-1.594 2.355q1.628.296 3.295.672.68-1.245 1.411-2.434 1.401.302 2.756.648a86 86 0 0 0-1.218 2.513q1.551.413 3.122.903.494-1.316.99-2.592 1.316.409 2.612.875-.374 1.316-.774 2.664 1.547.552 3.035 1.152.295-1.375.54-2.725c.866.359 1.725.74 2.593 1.145a57 57 0 0 1-.339 2.766q1.553.695 3.03 1.428.118-1.399.143-2.79 1.323.687 2.666 1.454.063 1.404.005 2.801.811.444 1.594.893.006.219.01.439c6.682 3.917 11.654 8.134 14.19 11.153-3.716-2.74-8.546-5.783-14.22-8.672m-11.075-20.024c-17.533-5.882-36.558 2.81-40.74 8.092-.17.215-.33.44-.465.678-.014.025-.03.075-.05.093 1.235-1.014 2.607-1.21 2.607-1.21-2.172 1.006-2.075 3.174-1.705 3.978 3.164 7.738 13.044 20.448 27.912 25.44 15.15 5.082 30.88.972 37.928-3.47.82-.582 1.906-2.046.848-4.043 0 0 .826.844 1.258 2.199.183-1.316-.104-3.18-.835-5.36-2.825-8.406-12.24-21.525-26.758-26.397"/></g></svg>